Coda.ufo
<glyph name="exclam" format="1">
  <advance width="519"/>
  <unicode hex="0021"/>
  <outline>
    <contour>
      <point x="260" y="498" type="curve" smooth="yes"/>
      <point x="272" y="498"/>
      <point x="286" y="503"/>
      <point x="289" y="534" type="curve" smooth="yes"/>
      <point x="324" y="917"/>
      <point x="368" y="1386"/>
      <point x="368" y="1418" type="curve" smooth="yes"/>
      <point x="368" y="1510"/>
      <point x="343" y="1556"/>
      <point x="260" y="1556" type="curve" smooth="yes"/>
      <point x="177" y="1556"/>
      <point x="152" y="1510"/>
      <point x="152" y="1418" type="curve" smooth="yes"/>
      <point x="152" y="1386"/>
      <point x="193" y="917"/>
      <point x="231" y="534" type="curve" smooth="yes"/>
      <point x="234" y="503"/>
      <point x="248" y="498"/>
    </contour>
    <contour>
      <point x="270" y="-21" type="curve" smooth="yes"/>
      <point x="340" y="-21"/>
      <point x="408" y="27"/>
      <point x="408" y="127" type="curve" smooth="yes"/>
      <point x="408" y="223"/>
      <point x="335" y="274"/>
      <point x="264" y="274" type="curve" smooth="yes"/>
      <point x="195" y="274"/>
      <point x="127" y="226"/>
      <point x="127" y="127" type="curve" smooth="yes"/>
      <point x="127" y="30"/>
      <point x="199" y="-21"/>
    </contour>
  </outline>
</glyph>
<glyph name="dollar" format="1">
  <advance width="1313"/>
  <unicode hex="0024"/>
  <outline>
    <contour>
      <point x="619" y="-274" type="line"/>
      <point x="713" y="-274" type="line"/>
      <point x="713" y="1745" type="line"/>
      <point x="619" y="1745" type="line"/>
    </contour>
    <component base="S"/>
  </outline>
</glyph>
<glyph name="ampersand" format="1">
  <advance width="1480"/>
  <unicode hex="0026"/>
  <outline>
    <contour>
      <point x="658" y="-23" type="curve" smooth="yes"/>
      <point x="999" y="-23"/>
      <point x="1213" y="117"/>
      <point x="1213" y="371" type="curve"/>
      <point x="1212" y="727" type="line"/>
      <point x="1346" y="728" type="line"/>
      <point x="1346" y="853" type="line"/>
      <point x="1213" y="853" type="line"/>
      <point x="1213" y="962" type="line"/>
      <point x="1030" y="962" type="line"/>
      <point x="1030" y="853" type="line"/>
      <point x="549" y="853" type="line" smooth="yes"/>
      <point x="462.201833367" y="853.0"/>
      <point x="409.81787711" y="894.855120727"/>
      <point x="406.200517374" y="1120.29517537" type="curve" smooth="yes"/>
      <point x="406.067079266" y="1128.6112668"/>
      <point x="406.0" y="1137.17717028"/>
      <point x="406" y="1146" type="curve" smooth="yes"/>
      <point x="406" y="1306"/>
      <point x="480" y="1357"/>
      <point x="712" y="1357" type="curve" smooth="yes"/>
      <point x="857.5" y="1357.0"/>
      <point x="937.75" y="1352.75"/>
      <point x="982.875" y="1328.875" type="curve" smooth="yes"/>
      <point x="1028.0" y="1305.0"/>
      <point x="1038.0" y="1261.5"/>
      <point x="1043" y="1183" type="curve"/>
      <point x="1195" y="1208" type="line"/>
      <point x="1195" y="1246"/>
      <point x="1191" y="1284"/>
      <point x="1188" y="1322" type="curve" smooth="yes"/>
      <point x="1171" y="1508"/>
      <point x="1016" y="1522"/>
      <point x="712" y="1522" type="curve" smooth="yes"/>
      <point x="331" y="1522"/>
      <point x="209" y="1431"/>
      <point x="209" y="1146" type="curve" smooth="yes"/>
      <point x="209.0" y="1029.23947597"/>
      <point x="233.837075352" y="932.247236395"/>
      <point x="284.954725276" y="874.510520762" type="curve" smooth="yes"/>
      <point x="300.961177524" y="856.431442731"/>
      <point x="319.544444914" y="842.201376"/>
      <point x="340.748846366" y="832.418625983" type="curve" smooth="yes"/>
      <point x="346.941939499" y="829.561413433"/>
      <point x="353.358622656" y="827.083569363"/>
      <point x="360" y="825" type="curve"/>
      <point x="331.656894743" y="819.24922502"/>
      <point x="305.92913081" y="808.225584469"/>
      <point x="282.938000455" y="792.067698064" type="curve" smooth="yes"/>
      <point x="193.987409521" y="729.554306087"/>
      <point x="146.0" y="590.189176977"/>
      <point x="146" y="382" type="curve" smooth="yes"/>
      <point x="146" y="104"/>
      <point x="307" y="-23"/>
    </contour>
    <contour>
      <point x="658" y="138" type="curve" smooth="yes"/>
      <point x="441" y="138"/>
      <point x="342" y="215"/>
      <point x="342" y="382" type="curve" smooth="yes"/>
      <point x="342" y="607"/>
      <point x="345" y="728"/>
      <point x="493" y="728" type="curve" smooth="yes"/>
      <point x="1030" y="728" type="line"/>
      <point x="1030" y="357" type="line" smooth="yes"/>
      <point x="1030" y="211"/>
      <point x="887" y="138"/>
    </contour>
  </outline>
</glyph>
<glyph name="period" format="1">
  <advance width="536"/>
  <unicode hex="002E"/>
  <outline>
    <contour>
      <point x="270" y="-31" type="curve" smooth="yes"/>
      <point x="340" y="-31"/>
      <point x="408" y="17"/>
      <point x="408" y="117" type="curve" smooth="yes"/>
      <point x="408" y="213"/>
      <point x="335" y="264"/>
      <point x="264" y="264" type="curve" smooth="yes"/>
      <point x="195" y="264"/>
      <point x="127" y="216"/>
      <point x="127" y="117" type="curve" smooth="yes"/>
      <point x="127" y="20"/>
      <point x="199" y="-31"/>
    </contour>
  </outline>
</glyph>
<glyph name="slash" format="1">
  <advance width="770"/>
  <unicode hex="002F"/>
  <outline>
    <contour>
      <point x="113" y="-26" type="line"/>
      <point x="282" y="-26" type="line"/>
      <point x="658" y="1516" type="line"/>
      <point x="480" y="1516" type="line"/>
    </contour>
  </outline>
</glyph>
<glyph name="two" format="1">
  <advance width="1176"/>
  <unicode hex="0032"/>
  <outline>
    <contour>
      <point x="145" y="9" type="line"/>
      <point x="1008" y="9" type="line"/>
      <point x="1008" y="146" type="line"/>
      <point x="326" y="146" type="line"/>
      <point x="326" y="356"/>
      <point x="388" y="394"/>
      <point x="581.011030465" y="513.272143751" type="curve" smooth="yes"/>
      <point x="810" y="655"/>
      <point x="1026" y="746"/>
      <point x="1026" y="1098" type="curve" smooth="yes"/>
      <point x="1026" y="1423"/>
      <point x="895" y="1506"/>
      <point x="584" y="1506" type="curve" smooth="yes"/>
      <point x="314" y="1506"/>
      <point x="159" y="1423"/>
      <point x="159" y="1187" type="curve" smooth="yes"/>
      <point x="159" y="1178"/>
      <point x="159" y="1169"/>
      <point x="160" y="1160" type="curve"/>
      <point x="308" y="1125" type="line"/>
      <point x="317.0" y="1232.0"/>
      <point x="321" y="1293"/>
      <point x="365" y="1327" type="curve" smooth="yes"/>
      <point x="410" y="1361"/>
      <point x="496.5" y="1368.0"/>
      <point x="599" y="1368" type="curve" smooth="yes"/>
      <point x="716.5" y="1368.0"/>
      <point x="782" y="1349"/>
      <point x="813" y="1305" type="curve" smooth="yes"/>
      <point x="844" y="1261"/>
      <point x="859" y="1193"/>
      <point x="859" y="1098" type="curve" smooth="yes"/>
      <point x="859" y="812"/>
      <point x="756" y="791"/>
      <point x="498.370203884" y="632.731506596" type="curve" smooth="yes"/>
      <point x="334" y="532"/>
      <point x="148" y="428"/>
      <point x="146" y="131" type="curve" smooth="yes"/>
    </contour>
  </outline>
</glyph>
<glyph name="three" format="1">
  <advance width="1217"/>
  <unicode hex="0033"/>
  <outline>
    <contour>
      <point x="567" y="-16" type="curve" smooth="yes"/>
      <point x="888" y="-16"/>
      <point x="1067" y="63"/>
      <point x="1067" y="420" type="curve" smooth="yes"/>
      <point x="1067" y="728"/>
      <point x="940" y="761"/>
      <point x="896" y="769" type="curve"/>
      <point x="931" y="777"/>
      <point x="1058" y="793"/>
      <point x="1058" y="1134" type="curve" smooth="yes"/>
      <point x="1058" y="1394"/>
      <point x="921" y="1506"/>
      <point x="611" y="1506" type="curve" smooth="yes"/>
      <point x="226" y="1506"/>
      <point x="162" y="1425"/>
      <point x="162" y="1202" type="curve" smooth="yes"/>
      <point x="162" y="1155" type="line"/>
      <point x="316" y="1144" type="line"/>
      <point x="316" y="1265"/>
      <point x="319" y="1307"/>
      <point x="335" y="1324" type="curve" smooth="yes"/>
      <point x="370" y="1360"/>
      <point x="460" y="1368"/>
      <point x="599" y="1368" type="curve" smooth="yes"/>
      <point x="863" y="1368"/>
      <point x="878.0" y="1321.0"/>
      <point x="878" y="1139" type="curve" smooth="yes"/>
      <point x="878" y="932"/>
      <point x="874" y="840"/>
      <point x="821" y="840" type="curve" smooth="yes"/>
      <point x="492" y="840" type="line"/>
      <point x="500" y="698" type="line"/>
      <point x="828" y="696" type="line" smooth="yes"/>
      <point x="874" y="696"/>
      <point x="885" y="641"/>
      <point x="885" y="419" type="curve" smooth="yes"/>
      <point x="885" y="180"/>
      <point x="877" y="122"/>
      <point x="591" y="122" type="curve" smooth="yes"/>
      <point x="446" y="122"/>
      <point x="365" y="128"/>
      <point x="331" y="172" type="curve" smooth="yes"/>
      <point x="304" y="207"/>
      <point x="305" y="257"/>
      <point x="305" y="351" type="curve"/>
      <point x="145" y="336" type="line"/>
      <point x="144" y="265" type="line" smooth="yes"/>
      <point x="141" y="34"/>
      <point x="299" y="-16"/>
    </contour>
  </outline>
</glyph>
<glyph name="four" format="1">
  <advance width="1204"/>
  <unicode hex="0034"/>
  <outline>
    <contour>
      <point x="614" y="1490" type="line"/>
      <point x="123.0" y="539.0" type="line"/>
      <point x="123.0" y="389.0" type="line"/>
      <point x="775" y="389" type="line"/>
      <point x="775" y="0" type="line"/>
      <point x="960" y="0" type="line"/>
      <point x="960" y="0"/>
      <point x="960" y="1017"/>
      <point x="960" y="1017" type="curve"/>
      <point x="775" y="1017" type="line"/>
      <point x="775" y="521" type="line"/>
      <point x="316.0" y="521.0" type="line"/>
      <point x="413.0" y="713.0" type="line"/>
      <point x="809" y="1490" type="line"/>
    </contour>
  </outline>
</glyph>
<glyph name="five" format="1">
  <advance width="1244"/>
  <unicode hex="0035"/>
  <outline>
    <contour>
      <point x="594" y="-16" type="curve" smooth="yes"/>
      <point x="976" y="-16"/>
      <point x="1099" y="63"/>
      <point x="1099" y="460" type="curve" smooth="yes"/>
      <point x="1099" y="808"/>
      <point x="1036" y="951"/>
      <point x="659" y="951" type="curve" smooth="yes"/>
      <point x="431" y="951"/>
      <point x="378" y="867"/>
      <point x="335" y="761" type="curve"/>
      <point x="367" y="1336" type="line"/>
      <point x="1012" y="1336" type="line"/>
      <point x="1012" y="1490" type="line"/>
      <point x="170" y="1490" type="line"/>
      <point x="170" y="662" type="line"/>
      <point x="344" y="649" type="line"/>
      <point x="370" y="794"/>
      <point x="470" y="800"/>
      <point x="619" y="800" type="curve" smooth="yes"/>
      <point x="913" y="800"/>
      <point x="919" y="758"/>
      <point x="919" y="526" type="curve" smooth="yes"/>
      <point x="919" y="474"/>
      <point x="922" y="425"/>
      <point x="922" y="381" type="curve" smooth="yes"/>
      <point x="922" y="231"/>
      <point x="888" y="133"/>
      <point x="595" y="133" type="curve" smooth="yes"/>
      <point x="344" y="133"/>
      <point x="326" y="167"/>
      <point x="308" y="375" type="curve"/>
      <point x="157" y="354" type="line"/>
      <point x="157" y="331"/>
      <point x="155" y="310"/>
      <point x="155" y="289" type="curve" smooth="yes"/>
      <point x="155" y="21"/>
      <point x="335" y="-16"/>
    </contour>
  </outline>
</glyph>
<glyph name="six" format="1">
  <advance width="1301"/>
  <unicode hex="0036"/>
  <outline>
    <contour>
      <point x="685" y="-16" type="curve" smooth="yes"/>
      <point x="1067" y="-16"/>
      <point x="1156" y="95"/>
      <point x="1156" y="488" type="curve" smooth="yes"/>
      <point x="1156" y="880"/>
      <point x="1035" y="948"/>
      <point x="675" y="948" type="curve" smooth="yes"/>
      <point x="484" y="948"/>
      <point x="396" y="882"/>
      <point x="341" y="782" type="curve"/>
      <point x="342" y="1147" type="line" smooth="yes"/>
      <point x="342" y="1313"/>
      <point x="434" y="1364"/>
      <point x="672" y="1364" type="curve" smooth="yes"/>
      <point x="789.5" y="1364.0"/>
      <point x="849.0" y="1360.0"/>
      <point x="879.125" y="1331.5" type="curve" smooth="yes"/>
      <point x="909.25" y="1303.0"/>
      <point x="910.0" y="1250.0"/>
      <point x="910" y="1152" type="curve"/>
      <point x="1070" y="1173" type="line"/>
      <point x="1075" y="1223"/>
      <point x="1078" y="1256"/>
      <point x="1078" y="1272" type="curve" smooth="yes"/>
      <point x="1078" y="1479"/>
      <point x="900" y="1500"/>
      <point x="662" y="1500" type="curve" smooth="yes"/>
      <point x="167" y="1500"/>
      <point x="152" y="1286"/>
      <point x="152" y="761" type="curve" smooth="yes"/>
      <point x="152" y="655" type="line" smooth="yes"/>
      <point x="152" y="110"/>
      <point x="195" y="-16"/>
    </contour>
    <contour>
      <point x="666" y="121" type="curve" smooth="yes"/>
      <point x="372" y="121"/>
      <point x="342" y="201"/>
      <point x="340" y="370" type="curve" smooth="yes"/>
      <point x="338" y="524" type="line" smooth="yes"/>
      <point x="336" y="705"/>
      <point x="348" y="794"/>
      <point x="667" y="794" type="curve" smooth="yes"/>
      <point x="971" y="794"/>
      <point x="975" y="749"/>
      <point x="975" y="530" type="curve" smooth="yes"/>
      <point x="975" y="333" type="line" smooth="yes"/>
      <point x="975" y="177"/>
      <point x="962" y="121"/>
    </contour>
  </outline>
</glyph>
<glyph name="seven" format="1">
  <advance width="981"/>
  <unicode hex="0037"/>
  <outline>
    <contour>
      <point x="231" y="0" type="curve"/>
      <point x="415" y="0" type="line"/>
      <point x="540" y="457"/>
      <point x="700" y="901"/>
      <point x="862" y="1320" type="curve"/>
      <point x="862" y="1490" type="line"/>
      <point x="118" y="1490" type="line"/>
      <point x="118" y="1338" type="line"/>
      <point x="693" y="1338" type="line"/>
      <point x="522" y="905"/>
      <point x="365" y="455"/>
    </contour>
  </outline>
</glyph>
<glyph name="nine" format="1">
  <advance width="1295"/>
  <unicode hex="0039"/>
  <outline>
    <contour>
      <point x="623" y="1503" type="curve" smooth="yes"/>
      <point x="241" y="1503"/>
      <point x="152" y="1392"/>
      <point x="152" y="999" type="curve" smooth="yes"/>
      <point x="152" y="607"/>
      <point x="286" y="539"/>
      <point x="646" y="539" type="curve" smooth="yes"/>
      <point x="837" y="539"/>
      <point x="912" y="575"/>
      <point x="967" y="645" type="curve"/>
      <point x="966" y="340" type="line" smooth="yes"/>
      <point x="965" y="174"/>
      <point x="874" y="123"/>
      <point x="636" y="123" type="curve" smooth="yes"/>
      <point x="518" y="123"/>
      <point x="459" y="127"/>
      <point x="429" y="155" type="curve" smooth="yes"/>
      <point x="399" y="184"/>
      <point x="398" y="237"/>
      <point x="398" y="335" type="curve"/>
      <point x="238" y="314" type="line"/>
      <point x="233" y="264"/>
      <point x="230" y="231"/>
      <point x="230" y="215" type="curve" smooth="yes"/>
      <point x="230" y="8"/>
      <point x="408" y="-13"/>
      <point x="646" y="-13" type="curve" smooth="yes"/>
      <point x="1141" y="-13"/>
      <point x="1156" y="201"/>
      <point x="1156" y="726" type="curve" smooth="yes"/>
      <point x="1156" y="832" type="line" smooth="yes"/>
      <point x="1156" y="1377"/>
      <point x="1113" y="1503"/>
    </contour>
    <contour>
      <point x="642" y="1366" type="curve" smooth="yes"/>
      <point x="936" y="1366"/>
      <point x="966" y="1286"/>
      <point x="968" y="1117" type="curve" smooth="yes"/>
      <point x="970" y="963" type="line" smooth="yes"/>
      <point x="972" y="782"/>
      <point x="960" y="693"/>
      <point x="641" y="693" type="curve" smooth="yes"/>
      <point x="337" y="693"/>
      <point x="333" y="738"/>
      <point x="333" y="957" type="curve" smooth="yes"/>
      <point x="333" y="1154" type="line" smooth="yes"/>
      <point x="333" y="1310"/>
      <point x="346" y="1366"/>
    </contour>
  </outline>
</glyph>
<glyph name="at" format="1">
  <advance width="2050"/>
  <unicode hex="0040"/>
  <outline>
    <contour>
      <point x="1038" y="-332" type="curve" smooth="yes"/>
      <point x="1287" y="-332"/>
      <point x="1461" y="-294"/>
      <point x="1641" y="-218" type="curve"/>
      <point x="1600" y="-93" type="line"/>
      <point x="1400" y="-172"/>
      <point x="1161" y="-196"/>
      <point x="1038" y="-196" type="curve" smooth="yes"/>
      <point x="476" y="-196"/>
      <point x="321" y="72"/>
      <point x="321" y="659" type="curve" smooth="yes"/>
      <point x="321" y="1233"/>
      <point x="496" y="1484"/>
      <point x="1059" y="1484" type="curve" smooth="yes"/>
      <point x="1642" y="1484"/>
      <point x="1731" y="1254"/>
      <point x="1731" y="670" type="curve" smooth="yes"/>
      <point x="1731" y="313"/>
      <point x="1729" y="279"/>
      <point x="1665" y="231" type="curve"/>
      <point x="1626" y="204"/>
      <point x="1558" y="203"/>
      <point x="1460" y="203" type="curve"/>
      <point x="1460" y="944" type="line" smooth="yes"/>
      <point x="1460" y="1153"/>
      <point x="1338" y="1254"/>
      <point x="1088" y="1254" type="curve" smooth="yes"/>
      <point x="826" y="1254"/>
      <point x="670" y="1229"/>
      <point x="670" y="1014" type="curve" smooth="yes"/>
      <point x="670" y="983"/>
      <point x="673" y="950"/>
      <point x="680" y="915" type="curve"/>
      <point x="812" y="915" type="line"/>
      <point x="810" y="939"/>
      <point x="809" y="965"/>
      <point x="809" y="992" type="curve" smooth="yes"/>
      <point x="809" y="1093"/>
      <point x="867" y="1117"/>
      <point x="931" y="1117" type="curve" smooth="yes"/>
      <point x="1140" y="1117" type="line" smooth="yes"/>
      <point x="1242" y="1117"/>
      <point x="1295" y="1099"/>
      <point x="1295" y="959" type="curve" smooth="yes"/>
      <point x="1295" y="717" type="line"/>
      <point x="1136" y="746"/>
      <point x="1004" y="760"/>
      <point x="898" y="760" type="curve" smooth="yes"/>
      <point x="678" y="760"/>
      <point x="607" y="650"/>
      <point x="607" y="410" type="curve" smooth="yes"/>
      <point x="607" y="146"/>
      <point x="723" y="73"/>
      <point x="974" y="73" type="curve" smooth="yes"/>
      <point x="1212" y="73"/>
      <point x="1314" y="154"/>
      <point x="1350" y="258" type="curve"/>
      <point x="1366" y="167"/>
      <point x="1425" y="99"/>
      <point x="1516" y="99" type="curve" smooth="yes"/>
      <point x="1860" y="99"/>
      <point x="1887" y="255"/>
      <point x="1887" y="662" type="curve" smooth="yes"/>
      <point x="1887" y="1369"/>
      <point x="1725" y="1623"/>
      <point x="1040" y="1623" type="curve" smooth="yes"/>
      <point x="400" y="1623"/>
      <point x="163" y="1317"/>
      <point x="163" y="627" type="curve" smooth="yes"/>
      <point x="163" y="-84"/>
      <point x="413" y="-332"/>
    </contour>
    <contour>
      <point x="1025" y="188" type="curve" smooth="yes"/>
      <point x="784" y="188"/>
      <point x="756" y="236"/>
      <point x="756" y="366" type="curve" smooth="yes"/>
      <point x="756" y="601"/>
      <point x="760" y="637"/>
      <point x="928" y="637" type="curve" smooth="yes"/>
      <point x="966" y="637"/>
      <point x="1014.0" y="636.0"/>
      <point x="1295" y="636" type="curve"/>
      <point x="1294" y="554"/>
      <point x="1305" y="446"/>
      <point x="1305" y="376" type="curve" smooth="yes"/>
      <point x="1305" y="251"/>
      <point x="1262" y="188"/>
    </contour>
  </outline>
</glyph>
<glyph name="B" format="1">
  <advance width="1372"/>
  <unicode hex="0042"/>
  <outline>
    <contour>
      <point x="192" y="0" type="line"/>
      <point x="726" y="0" type="line" smooth="yes"/>
      <point x="1158" y="0"/>
      <point x="1242" y="25"/>
      <point x="1242" y="429" type="curve" smooth="yes"/>
      <point x="1242" y="624"/>
      <point x="1211" y="779"/>
      <point x="977" y="803" type="curve"/>
      <point x="983.668065488" y="804.148389056"/>
      <point x="990.133027939" y="805.331086058"/>
      <point x="996.400784474" y="806.55485236" type="curve" smooth="yes"/>
      <point x="1159.32695356" y="838.365844742"/>
      <point x="1189.0" y="897.927588969"/>
      <point x="1189" y="1104" type="curve" smooth="yes"/>
      <point x="1188" y="1212" type="line" smooth="yes"/>
      <point x="1186" y="1442"/>
      <point x="1041" y="1490"/>
      <point x="758" y="1490" type="curve" smooth="yes"/>
      <point x="192" y="1490" type="line"/>
    </contour>
    <contour>
      <point x="393" y="151" type="line"/>
      <point x="393" y="729" type="line"/>
      <point x="627" y="729" type="line" smooth="yes"/>
      <point x="1057" y="729"/>
      <point x="1041" y="701"/>
      <point x="1044" y="477" type="curve" smooth="yes"/>
      <point x="1046" y="344" type="line"/>
      <point x="1046.0" y="198.0"/>
      <point x="1003" y="151"/>
      <point x="775" y="151" type="curve" smooth="yes"/>
    </contour>
    <contour>
      <point x="393" y="860" type="line"/>
      <point x="393" y="1338" type="line"/>
      <point x="662" y="1338" type="line" smooth="yes"/>
      <point x="987" y="1338"/>
      <point x="991" y="1328"/>
      <point x="991" y="1159" type="curve" smooth="yes"/>
      <point x="991" y="989" type="line" smooth="yes"/>
      <point x="991" y="905"/>
      <point x="950" y="860"/>
      <point x="594" y="860" type="curve" smooth="yes"/>
    </contour>
    <contour>
      <point x="702" y="1490" type="move" name="top"/>
    </contour>
  </outline>
</glyph>
<glyph name="C" format="1">
  <advance width="1357"/>
  <unicode hex="0043"/>
  <outline>
    <contour>
      <point x="772" y="-24" type="curve" smooth="yes"/>
      <point x="1098.82561445" y="-24.0"/>
      <point x="1213.62716527" y="47.7495880731"/>
      <point x="1248.86783888" y="330.950376124" type="curve" smooth="yes"/>
      <point x="1252.87624682" y="363.16270838"/>
      <point x="1255.85532391" y="398.110722423"/>
      <point x="1258" y="436" type="curve"/>
      <point x="1084" y="462" type="line"/>
      <point x="1073.5" y="335.0"/>
      <point x="1074.0" y="252.0"/>
      <point x="1034.25" y="200.75" type="curve" smooth="yes"/>
      <point x="994.5" y="149.5"/>
      <point x="914.5" y="130.0"/>
      <point x="743" y="130" type="curve" smooth="yes"/>
      <point x="444" y="130"/>
      <point x="363" y="184"/>
      <point x="356" y="289" type="curve" smooth="yes"/>
      <point x="348" y="411"/>
      <point x="347" y="536"/>
      <point x="347" y="664" type="curve" smooth="yes"/>
      <point x="347" y="847"/>
      <point x="348" y="1027"/>
      <point x="356" y="1203" type="curve" smooth="yes"/>
      <point x="363" y="1347"/>
      <point x="490" y="1360"/>
      <point x="742" y="1360" type="curve" smooth="yes"/>
      <point x="880.5" y="1360.0"/>
      <point x="957.75" y="1358.75"/>
      <point x="1004.25" y="1318.625" type="curve" smooth="yes"/>
      <point x="1050.75" y="1278.5"/>
      <point x="1066.5" y="1199.5"/>
      <point x="1082" y="1044" type="curve"/>
      <point x="1257" y="1078" type="line"/>
      <point x="1255.01614152" y="1104.89230385"/>
      <point x="1252.46541346" y="1130.18117663"/>
      <point x="1249.30537103" y="1153.95706146" type="curve" smooth="yes"/>
      <point x="1209.45773597" y="1453.76720683"/>
      <point x="1072.72417343" y="1513.0"/>
      <point x="754" y="1513" type="curve" smooth="yes"/>
      <point x="296.671366513" y="1513.0"/>
      <point x="180.238773014" y="1437.53446443"/>
      <point x="152.307025897" y="1067.79092815" type="curve" smooth="yes"/>
      <point x="145.608751065" y="979.12322638"/>
      <point x="144.0" y="873.532128513"/>
      <point x="144" y="748" type="curve" smooth="yes"/>
      <point x="144.0" y="627.00390625"/>
      <point x="145.471996307" y="523.16708374"/>
      <point x="152.926852606" y="434.540287361" type="curve" smooth="yes"/>
      <point x="181.823295593" y="91.0059432983"/>
      <point x="300.611328125" y="-24.0"/>
    </contour>
    <contour>
      <point x="729" y="1490" type="move" name="top"/>
    </contour>
    <contour>
      <point x="729" y="0" type="move" name="bot"/>
    </contour>
  </outline>
</glyph>
<glyph name="F" format="1">
  <advance width="1065"/>
  <unicode hex="0046"/>
  <outline>
    <contour>
      <point x="192" y="0" type="line"/>
      <point x="395" y="0" type="line"/>
      <point x="395" y="688" type="line"/>
      <point x="919" y="688" type="line"/>
      <point x="919" y="850" type="line"/>
      <point x="395" y="850" type="line"/>
      <point x="395" y="1336" type="line"/>
      <point x="1010" y="1336" type="line"/>
      <point x="990" y="1490" type="line"/>
      <point x="192" y="1490" type="line"/>
    </contour>
    <contour>
      <point x="548" y="0" type="move" name="bot"/>
    </contour>
    <contour>
      <point x="598" y="1490" type="move" name="top"/>
    </contour>
  </outline>
</glyph>
<glyph name="G" format="1">
  <advance width="1378"/>
  <unicode hex="0047"/>
  <outline>
    <contour>
      <point x="673" y="-24" type="curve" smooth="yes"/>
      <point x="960" y="-24"/>
      <point x="1156" y="22"/>
      <point x="1248" y="106" type="curve"/>
      <point x="1248" y="745" type="line"/>
      <point x="733" y="745" type="line"/>
      <point x="750" y="594" type="line"/>
      <point x="1063" y="594" type="line"/>
      <point x="1063" y="278"/>
      <point x="1063" y="176"/>
      <point x="1063" y="176" type="curve"/>
      <point x="1038" y="145"/>
      <point x="909" y="130"/>
      <point x="684" y="130" type="curve" smooth="yes"/>
      <point x="362" y="130"/>
      <point x="365" y="167"/>
      <point x="357" y="352" type="curve" smooth="yes"/>
      <point x="351" y="488"/>
      <point x="348" y="628"/>
      <point x="348" y="772" type="curve" smooth="yes"/>
      <point x="348" y="914"/>
      <point x="348" y="1055"/>
      <point x="357" y="1192" type="curve" smooth="yes"/>
      <point x="365" y="1319"/>
      <point x="422" y="1360"/>
      <point x="690" y="1360" type="curve" smooth="yes"/>
      <point x="939" y="1360"/>
      <point x="1029" y="1348"/>
      <point x="1032" y="1259" type="curve" smooth="yes"/>
      <point x="1043" y="1062" type="line"/>
      <point x="1222" y="1096" type="line"/>
      <point x="1223" y="1112"/>
      <point x="1224" y="1129"/>
      <point x="1224" y="1146" type="curve" smooth="yes"/>
      <point x="1224" y="1506"/>
      <point x="989.0" y="1513.0"/>
      <point x="718" y="1513" type="curve" smooth="yes"/>
      <point x="363.839681029" y="1513.0"/>
      <point x="226.691652287" y="1439.76951523"/>
      <point x="174.671230444" y="1210.65683239" type="curve" smooth="yes"/>
      <point x="148.843225741" y="1096.9029788"/>
      <point x="144.0" y="944.72265476"/>
      <point x="144" y="744" type="curve" smooth="yes"/>
      <point x="144.0" y="557.471830904"/>
      <point x="146.741825311" y="413.533348313"/>
      <point x="164.354959494" y="303.481164251" type="curve" smooth="yes"/>
      <point x="205.002750957" y="49.501481728"/>
      <point x="324.855034649" y="-24.0"/>
    </contour>
    <contour>
      <point x="689" y="1490" type="move" name="top"/>
    </contour>
    <contour>
      <point x="677" y="0" type="move" name="bottom"/>
    </contour>
    <contour>
      <point x="689" y="0" type="move" name="bot"/>
    </contour>
  </outline>
</glyph>
<glyph name="J" format="1">
  <advance width="757"/>
  <unicode hex="004A"/>
  <outline>
    <contour>
      <point x="279" y="-16" type="curve" smooth="yes"/>
      <point x="502" y="-16"/>
      <point x="599" y="98"/>
      <point x="599" y="432" type="curve" smooth="yes"/>
      <point x="599" y="1490" type="line"/>
      <point x="396" y="1490" type="line"/>
      <point x="396" y="337" type="line" smooth="yes"/>
      <point x="396" y="204"/>
      <point x="366" y="146"/>
      <point x="226" y="146" type="curve" smooth="yes"/>
      <point x="179" y="146"/>
      <point x="120" y="153"/>
      <point x="46" y="165" type="curve"/>
      <point x="32" y="14" type="line"/>
      <point x="127" y="-5"/>
      <point x="209" y="-16"/>
    </contour>
    <contour>
      <point x="496" y="1490" type="move" name="top"/>
    </contour>
    <contour>
      <point x="379" y="0" type="move" name="bot"/>
    </contour>
  </outline>
</glyph>
<glyph name="M" format="1">
  <advance width="1769"/>
  <unicode hex="004D"/>
  <outline>
    <contour>
      <point x="140.0" y="0.0" type="line"/>
      <point x="327.0" y="0.0" type="line"/>
      <point x="395.0" y="1190.0" type="line"/>
      <point x="395.0" y="1190.0"/>
      <point x="396.0" y="1190.0"/>
      <point x="396.0" y="1190.0" type="curve"/>
      <point x="829.0" y="0.0" type="line"/>
      <point x="945.0" y="0.0" type="line"/>
      <point x="1355.0" y="1190.0" type="line"/>
      <point x="1355.0" y="1190.0"/>
      <point x="1360.0" y="1190.0"/>
      <point x="1360.0" y="1190.0" type="curve"/>
      <point x="1431.0" y="0.0" type="line"/>
      <point x="1629.0" y="0.0" type="line"/>
      <point x="1530.0" y="1499.0" type="line"/>
      <point x="1310.0" y="1499.0" type="line"/>
      <point x="889.0" y="329.0" type="line"/>
      <point x="889.0" y="329.0"/>
      <point x="887.0" y="329.0"/>
      <point x="887.0" y="329.0" type="curve"/>
      <point x="458.0" y="1499.0" type="line"/>
      <point x="238.0" y="1499.0" type="line"/>
    </contour>
    <contour>
      <point x="886" y="0" type="move" name="bot"/>
    </contour>
    <contour>
      <point x="886" y="1490" type="move" name="top"/>
    </contour>
  </outline>
</glyph>
<glyph name="N" format="1">
  <advance width="1483"/>
  <unicode hex="004E"/>
  <outline>
    <contour>
      <point x="192" y="0" type="line"/>
      <point x="370" y="0" type="line"/>
      <point x="370" y="1177" type="line"/>
      <point x="1080" y="0" type="line"/>
      <point x="1291" y="0" type="line"/>
      <point x="1291" y="1490" type="line"/>
      <point x="1113" y="1490" type="line"/>
      <point x="1113" y="297" type="line"/>
      <point x="397" y="1490" type="line"/>
      <point x="192" y="1490" type="line"/>
    </contour>
    <contour>
      <point x="762" y="1490" type="move" name="top"/>
    </contour>
    <contour>
      <point x="747" y="0" type="move" name="bottom"/>
    </contour>
    <contour>
      <point x="742" y="0" type="move" name="bot"/>
    </contour>
  </outline>
</glyph>
<glyph name="P" format="1">
  <advance width="1304"/>
  <unicode hex="0050"/>
  <outline>
    <contour>
      <point x="192" y="0" type="line"/>
      <point x="394" y="0" type="line"/>
      <point x="394" y="521" type="line"/>
      <point x="791" y="521" type="line" smooth="yes"/>
      <point x="1035.81453001" y="521.0"/>
      <point x="1191.44703872" y="572.783109148"/>
      <point x="1197.79793487" y="977.786339795" type="curve" smooth="yes"/>
      <point x="1197.93245458" y="986.364801605"/>
      <point x="1198.0" y="995.101733506"/>
      <point x="1198" y="1004" type="curve" smooth="yes"/>
      <point x="1198" y="1414"/>
      <point x="1085" y="1490"/>
      <point x="732" y="1490" type="curve" smooth="yes"/>
      <point x="192" y="1490" type="line"/>
    </contour>
    <contour>
      <point x="394" y="672" type="line"/>
      <point x="394" y="1340" type="line"/>
      <point x="788" y="1340" type="line" smooth="yes"/>
      <point x="970" y="1340"/>
      <point x="991" y="1281"/>
      <point x="996" y="1015" type="curve" smooth="yes"/>
      <point x="996.0" y="777.424242424"/>
      <point x="998.312883436" y="672.0"/>
      <point x="747" y="672" type="curve" smooth="yes"/>
    </contour>
    <contour>
      <point x="658" y="0" type="move" name="bot"/>
    </contour>
    <contour>
      <point x="658" y="1490" type="move" name="top"/>
    </contour>
  </outline>
</glyph>
<glyph name="Q" format="1">
  <advance width="1444"/>
  <unicode hex="0051"/>
  <outline>
    <contour>
      <point x="1099" y="-358" type="line"/>
      <point x="1251" y="-271" type="line"/>
      <point x="1041" y="68" type="line"/>
      <point x="846" y="31" type="line"/>
    </contour>
    <component base="O"/>
  </outline>
</glyph>
<glyph name="S" format="1">
  <advance width="1302"/>
  <unicode hex="0053"/>
  <outline>
    <contour>
      <point x="642" y="-24" type="curve" smooth="yes"/>
      <point x="1017" y="-24"/>
      <point x="1161" y="6"/>
      <point x="1161" y="437" type="curve" smooth="yes"/>
      <point x="1161" y="783"/>
      <point x="1043" y="814"/>
      <point x="789" y="857" type="curve" smooth="yes"/>
      <point x="431" y="918" type="line" smooth="yes"/>
      <point x="366" y="929"/>
      <point x="349.0" y="974.0"/>
      <point x="349.0" y="1089.63792723" type="curve"/>
      <point x="349.0" y="1306.0"/>
      <point x="381" y="1344"/>
      <point x="668" y="1344" type="curve" smooth="yes"/>
      <point x="810.5" y="1344.0"/>
      <point x="876.25" y="1335.25"/>
      <point x="908.375" y="1304.0" type="curve" smooth="yes"/>
      <point x="940.5" y="1272.75"/>
      <point x="939.0" y="1219.0"/>
      <point x="947" y="1129" type="curve"/>
      <point x="1125" y="1170" type="line"/>
      <point x="1125" y="1469"/>
      <point x="986" y="1513"/>
      <point x="636" y="1513" type="curve" smooth="yes"/>
      <point x="264" y="1513"/>
      <point x="155" y="1442"/>
      <point x="155" y="1081" type="curve" smooth="yes"/>
      <point x="155" y="853"/>
      <point x="216" y="763"/>
      <point x="390" y="733" type="curve" smooth="yes"/>
      <point x="888" y="646" type="line" smooth="yes"/>
      <point x="949" y="635"/>
      <point x="959" y="571"/>
      <point x="960" y="404" type="curve" smooth="yes"/>
      <point x="960.0" y="182.0"/>
      <point x="928" y="140"/>
      <point x="646" y="140" type="curve" smooth="yes"/>
      <point x="479.5" y="140.0"/>
      <point x="404.5" y="152.5"/>
      <point x="368.0" y="192.5" type="curve" smooth="yes"/>
      <point x="331.5" y="232.5"/>
      <point x="333.5" y="300.0"/>
      <point x="321" y="410" type="curve"/>
      <point x="136" y="380" type="line"/>
      <point x="149" y="69"/>
      <point x="174" y="-24"/>
    </contour>
    <contour>
      <point x="644" y="1490" type="move" name="top"/>
    </contour>
    <contour>
      <point x="614" y="0" type="move" name="bottom"/>
    </contour>
    <contour>
      <point x="644" y="0" type="move" name="bot"/>
    </contour>
  </outline>
</glyph>
<glyph name="T" format="1">
  <advance width="1085"/>
  <unicode hex="0054"/>
  <outline>
    <contour>
      <point x="437" y="0" type="line"/>
      <point x="640" y="0" type="line"/>
      <point x="640" y="1336" type="line"/>
      <point x="1029" y="1336" type="line"/>
      <point x="1029" y="1490" type="line"/>
      <point x="56" y="1490" type="line"/>
      <point x="56" y="1336" type="line"/>
      <point x="437" y="1336" type="line"/>
    </contour>
    <contour>
      <point x="543" y="0" type="move" name="bot"/>
    </contour>
    <contour>
      <point x="543" y="1490" type="move" name="top"/>
    </contour>
    <contour>
      <point x="541" y="897" type="move" name="mid"/>
    </contour>
    <contour>
      <point x="442" y="745" type="move" name="center"/>
    </contour>
  </outline>
</glyph>
<glyph name="V" format="1">
  <advance width="1317"/>
  <unicode hex="0056"/>
  <outline>
    <contour>
      <point x="547" y="0" type="line"/>
      <point x="757" y="0" type="line"/>
      <point x="1269" y="1490" type="line"/>
      <point x="1049" y="1490" type="line"/>
      <point x="657" y="261" type="line"/>
      <point x="656" y="261" type="line"/>
      <point x="257" y="1490" type="line"/>
      <point x="42" y="1490" type="line"/>
    </contour>
  </outline>
</glyph>
<glyph name="W" format="1">
  <advance width="1915"/>
  <unicode hex="0057"/>
  <outline>
    <contour>
      <point x="426.0" y="0.0" type="line"/>
      <point x="642.0" y="0.0" type="line"/>
      <point x="960.0" y="1162.0" type="line"/>
      <point x="960.0" y="1162.0"/>
      <point x="975.0" y="1162.0"/>
      <point x="975.0" y="1162.0" type="curve"/>
      <point x="1269.0" y="0.0" type="line"/>
      <point x="1486.0" y="0.0" type="line"/>
      <point x="1807.0" y="1490.0" type="line"/>
      <point x="1617.0" y="1490.0" type="line"/>
      <point x="1392.0" y="308.0" type="line"/>
      <point x="1392.0" y="308.0"/>
      <point x="1378.0" y="308.0"/>
      <point x="1378.0" y="308.0" type="curve"/>
      <point x="1067.0" y="1490.0" type="line"/>
      <point x="866.0" y="1490.0" type="line"/>
      <point x="551.0" y="300.0" type="line"/>
      <point x="551.0" y="300.0"/>
      <point x="542.0" y="300.0"/>
      <point x="542.0" y="300.0" type="curve"/>
      <point x="312.0" y="1490.0" type="line"/>
      <point x="108.0" y="1490.0" type="line"/>
    </contour>
    <contour>
      <point x="955" y="1490" type="move" name="top"/>
    </contour>
    <contour>
      <point x="955" y="0" type="move" name="bot"/>
    </contour>
  </outline>
</glyph>
<glyph name="Y" format="1">
  <advance width="1219"/>
  <unicode hex="0059"/>
  <outline>
    <contour>
      <point x="503.0" y="0.0" type="line"/>
      <point x="705.0" y="0.0" type="line"/>
      <point x="705.0" y="518.0" type="line"/>
      <point x="1177.0" y="1490.0" type="line"/>
      <point x="973.0" y="1490.0" type="line"/>
      <point x="612.0" y="728.0" type="line"/>
      <point x="612.0" y="728.0"/>
      <point x="610.0" y="728.0"/>
      <point x="610.0" y="728.0" type="curve"/>
      <point x="261.0" y="1490.0" type="line"/>
      <point x="50.0" y="1490.0" type="line"/>
      <point x="503.0" y="518.0" type="line"/>
    </contour>
    <contour>
      <point x="622" y="1490" type="move" name="top"/>
    </contour>
    <contour>
      <point x="622" y="0" type="move" name="bot"/>
    </contour>
  </outline>
</glyph>
<glyph name="bracketright" format="1">
  <advance width="721"/>
  <unicode hex="005D"/>
  <outline>
    <contour>
      <point x="101" y="-272" type="line"/>
      <point x="546" y="-272" type="line"/>
      <point x="546" y="1638" type="line"/>
      <point x="101" y="1638" type="line"/>
      <point x="101" y="1487" type="line"/>
      <point x="355" y="1487" type="line"/>
      <point x="355" y="-120" type="line"/>
      <point x="101" y="-120" type="line"/>
    </contour>
  </outline>
</glyph>
<glyph name="asciicircum" format="1">
  <advance width="972"/>
  <unicode hex="005E"/>
  <outline>
    <contour>
      <point x="0" y="702" type="line"/>
      <point x="135" y="702" type="line"/>
      <point x="486" y="1311" type="line"/>
      <point x="837" y="702" type="line"/>
      <point x="972" y="702" type="line"/>
      <point x="580" y="1438" type="line" smooth="yes"/>
      <point x="558" y="1479"/>
      <point x="522" y="1490"/>
      <point x="486" y="1490" type="curve" smooth="yes"/>
      <point x="450" y="1490"/>
      <point x="418" y="1477"/>
      <point x="392" y="1438" type="curve"/>
    </contour>
  </outline>
</glyph>
<glyph name="underscore" format="1">
  <advance width="1078"/>
  <unicode hex="005F"/>
  <outline>
    <contour>
      <point x="119" y="-227" type="line"/>
      <point x="956" y="-227" type="line"/>
      <point x="956" y="-100" type="line"/>
      <point x="119" y="-100" type="line"/>
    </contour>
  </outline>
</glyph>
<glyph name="a" format="1">
  <advance width="1127"/>
  <unicode hex="0061"/>
  <outline>
    <contour>
      <point x="466" y="-15" type="curve" smooth="yes"/>
      <point x="649" y="-15"/>
      <point x="752" y="10"/>
      <point x="795" y="157" type="curve"/>
      <point x="827" y="0" type="line"/>
      <point x="983" y="0" type="line"/>
      <point x="983" y="726" type="line" smooth="yes"/>
      <point x="983" y="1037"/>
      <point x="874" y="1128"/>
      <point x="562" y="1128" type="curve" smooth="yes"/>
      <point x="327" y="1128"/>
      <point x="156" y="1104"/>
      <point x="156" y="877" type="curve" smooth="yes"/>
      <point x="156" y="862"/>
      <point x="156" y="846"/>
      <point x="158" y="830" type="curve"/>
      <point x="311" y="824" type="line"/>
      <point x="312.19624868" y="857.49496305"/>
      <point x="312.705612126" y="884.521756808"/>
      <point x="316.075032985" y="906.258130571" type="curve" smooth="yes"/>
      <point x="326.788891439" y="975.37399397"/>
      <point x="366.419936657" y="991.0"/>
      <point x="549" y="991" type="curve" smooth="yes"/>
      <point x="712" y="991"/>
      <point x="786" y="970"/>
      <point x="786" y="901" type="curve" smooth="yes"/>
      <point x="786" y="604" type="line"/>
      <point x="702.714599401" y="604.0"/>
      <point x="625.402360866" y="602.78740319"/>
      <point x="555.272023875" y="598.753729476" type="curve" smooth="yes"/>
      <point x="294.477345929" y="583.753649876"/>
      <point x="133.0" y="529.741363019"/>
      <point x="133" y="354" type="curve" smooth="yes"/>
      <point x="133" y="86"/>
      <point x="200" y="-15"/>
    </contour>
    <contour>
      <point x="493" y="122" type="curve" smooth="yes"/>
      <point x="346.911935806" y="122.0"/>
      <point x="320.705706419" y="144.73621005"/>
      <point x="316.01765945" y="266.268896241" type="curve" smooth="yes"/>
      <point x="315.057768847" y="291.153050383"/>
      <point x="315.0" y="320.179118037"/>
      <point x="315" y="354" type="curve" smooth="yes"/>
      <point x="315" y="443"/>
      <point x="384" y="485"/>
      <point x="786" y="485" type="curve"/>
      <point x="786" y="314" type="line" smooth="yes"/>
      <point x="786" y="203"/>
      <point x="719" y="122"/>
    </contour>
    <contour>
      <point x="541" y="1097" type="move" name="top"/>
    </contour>
    <contour>
      <point x="903" y="0" type="move" name="ogonek"/>
    </contour>
    <contour>
      <point x="566" y="0" type="move" name="bot"/>
    </contour>
  </outline>
</glyph>
<glyph name="c" format="1">
  <advance width="1094"/>
  <unicode hex="0063"/>
  <outline>
    <contour>
      <point x="576" y="-15" type="curve" smooth="yes"/>
      <point x="893.641942978" y="-15.0"/>
      <point x="959.535685087" y="39.6246096225"/>
      <point x="984.996134802" y="251.009367964" type="curve" smooth="yes"/>
      <point x="988.150862488" y="277.201417082"/>
      <point x="990.684820175" y="305.800195694"/>
      <point x="993" y="337" type="curve"/>
      <point x="829" y="365" type="line"/>
      <point x="824.102482647" y="321.437871963"/>
      <point x="821.929100266" y="284.254206301"/>
      <point x="816.862379889" y="253.05509485" type="curve" smooth="yes"/>
      <point x="802.272674323" y="163.216734699"/>
      <point x="763.692521125" y="123.0"/>
      <point x="567" y="123" type="curve" smooth="yes"/>
      <point x="352" y="123"/>
      <point x="319" y="144"/>
      <point x="319" y="468" type="curve" smooth="yes"/>
      <point x="319" y="680" type="line" smooth="yes"/>
      <point x="319.0" y="885.038828769"/>
      <point x="289.015227086" y="989.0"/>
      <point x="585" y="989" type="curve" smooth="yes"/>
      <point x="801" y="989"/>
      <point x="799" y="963"/>
      <point x="810" y="893" type="curve" smooth="yes"/>
      <point x="831" y="754" type="line"/>
      <point x="993" y="781" type="line"/>
      <point x="990.956224084" y="822.16748631"/>
      <point x="987.100985415" y="858.710414768"/>
      <point x="981.057839373" y="891.101674484" type="curve" smooth="yes"/>
      <point x="945.705035926" y="1080.592683"/>
      <point x="835.474881828" y="1128.0"/>
      <point x="575" y="1128" type="curve" smooth="yes"/>
      <point x="190" y="1128"/>
      <point x="132" y="1024"/>
      <point x="132" y="619" type="curve" smooth="yes"/>
      <point x="132.0" y="582.684561379"/>
      <point x="132.03391873" y="548.245959126"/>
      <point x="132.282824349" y="515.607260524" type="curve" smooth="yes"/>
      <point x="135.344395448" y="114.147073816"/>
      <point x="170.932012662" y="-15.0"/>
    </contour>
    <contour>
      <point x="534" y="1097" type="move" name="top"/>
    </contour>
    <contour>
      <point x="534" y="0" type="move" name="bottom"/>
    </contour>
    <contour>
      <point x="550" y="0" type="move" name="bot"/>
    </contour>
  </outline>
</glyph>
<glyph name="d" format="1">
  <advance width="1193"/>
  <unicode hex="0064"/>
  <outline>
    <contour>
      <point x="515" y="-15" type="curve" smooth="yes"/>
      <point x="689" y="-15"/>
      <point x="794" y="38"/>
      <point x="834" y="138" type="curve"/>
      <point x="853" y="0" type="line"/>
      <point x="1033" y="0" type="line"/>
      <point x="1033" y="1535" type="line"/>
      <point x="836" y="1519" type="line"/>
      <point x="836" y="984" type="line"/>
      <point x="795" y="1083"/>
      <point x="706" y="1128"/>
      <point x="533" y="1128" type="curve" smooth="yes"/>
      <point x="175" y="1128"/>
      <point x="131" y="968"/>
      <point x="132" y="566" type="curve" smooth="yes"/>
      <point x="132" y="502" type="line" smooth="yes"/>
      <point x="132" y="173"/>
      <point x="164.33111155" y="-15.0"/>
    </contour>
    <contour>
      <point x="579" y="122" type="curve" smooth="yes"/>
      <point x="330" y="122"/>
      <point x="331" y="198"/>
      <point x="330" y="400" type="curve" smooth="yes"/>
      <point x="329" y="706" type="line" smooth="yes"/>
      <point x="328" y="943"/>
      <point x="362.948135536" y="990.0"/>
      <point x="579" y="990" type="curve" smooth="yes"/>
      <point x="778" y="990"/>
      <point x="836" y="954"/>
      <point x="836" y="838" type="curve" smooth="yes"/>
      <point x="836" y="255" type="line" smooth="yes"/>
      <point x="836" y="150"/>
      <point x="762" y="122"/>
    </contour>
    <contour>
      <point x="908" y="1319" type="move" name="mid"/>
    </contour>
    <contour>
      <point x="943" y="1097" type="move" name="caron.alt"/>
    </contour>
    <contour>
      <point x="599" y="1097" type="move" name="top"/>
    </contour>
  </outline>
</glyph>
<glyph name="e" format="1">
  <advance width="1136"/>
  <unicode hex="0065"/>
  <outline>
    <contour>
      <point x="615" y="-15" type="curve" smooth="yes"/>
      <point x="884.194593787" y="-15.0"/>
      <point x="970.189540834" y="25.2546308981"/>
      <point x="990.633434833" y="235.326268026" type="curve" smooth="yes"/>
      <point x="992.745107171" y="257.024798899"/>
      <point x="994.157411933" y="280.535116196"/>
      <point x="995" y="306" type="curve"/>
      <point x="842" y="334" type="line"/>
      <point x="824" y="206"/>
      <point x="870" y="122"/>
      <point x="598" y="122" type="curve" smooth="yes"/>
      <point x="398" y="122"/>
      <point x="341" y="142"/>
      <point x="336" y="232" type="curve" smooth="yes"/>
      <point x="330" y="336"/>
      <point x="329" y="442"/>
      <point x="328" y="550" type="curve"/>
      <point x="1017" y="550" type="line" smooth="yes"/>
      <point x="1021.69697123" y="629.055929181" type="line"/>
      <point x="1017.48270954" y="1039.24937214"/>
      <point x="964.752712071" y="1128.0"/>
      <point x="586" y="1128" type="curve" smooth="yes"/>
      <point x="175.98301363" y="1128.0"/>
      <point x="132" y="1031"/>
      <point x="132" y="594" type="curve" smooth="yes"/>
      <point x="132" y="534" type="line" smooth="yes"/>
      <point x="132" y="147"/>
      <point x="147" y="-15"/>
    </contour>
    <contour>
      <point x="329" y="655" type="line"/>
      <point x="330.882990122" y="730.947268248"/>
      <point x="328.432405823" y="827.774485978"/>
      <point x="346.128480583" y="895.532085887" type="curve" smooth="yes"/>
      <point x="366.199454071" y="972.383083056"/>
      <point x="387.92715406" y="991.0"/>
      <point x="585" y="991" type="curve" smooth="yes"/>
      <point x="755" y="991"/>
      <point x="809" y="971"/>
      <point x="815" y="889" type="curve" smooth="yes"/>
      <point x="821" y="813"/>
      <point x="824" y="735"/>
      <point x="825" y="655" type="curve"/>
    </contour>
    <contour>
      <point x="551" y="0" type="move" name="bottom"/>
    </contour>
    <contour>
      <point x="655" y="0" type="move" name="ogonek"/>
    </contour>
    <contour>
      <point x="551" y="1097" type="move" name="top"/>
    </contour>
    <contour>
      <point x="572" y="0" type="move" name="bot"/>
    </contour>
  </outline>
</glyph>
<glyph name="g" format="1">
  <advance width="1169"/>
  <unicode hex="0067"/>
  <outline>
    <contour>
      <point x="590" y="-406" type="curve" smooth="yes"/>
      <point x="961" y="-406"/>
      <point x="1025" y="-284"/>
      <point x="1025" y="90" type="curve" smooth="yes"/>
      <point x="1026" y="1097" type="line"/>
      <point x="847" y="1097" type="line"/>
      <point x="828" y="975" type="line"/>
      <point x="779" y="1082"/>
      <point x="674" y="1125"/>
      <point x="503" y="1125" type="curve" smooth="yes"/>
      <point x="168.083492756" y="1125.0"/>
      <point x="134.972721744" y="1002.86160821"/>
      <point x="132.225549558" y="612.039376216" type="curve" smooth="yes"/>
      <point x="132.052610979" y="587.436534854"/>
      <point x="132.0" y="561.768929005"/>
      <point x="132" y="535" type="curve" smooth="yes"/>
      <point x="132" y="185"/>
      <point x="145" y="17"/>
      <point x="548" y="17" type="curve" smooth="yes"/>
      <point x="709" y="17"/>
      <point x="791" y="58"/>
      <point x="827" y="151" type="curve"/>
      <point x="827" y="-97" type="line" smooth="yes"/>
      <point x="827" y="-197"/>
      <point x="805" y="-260"/>
      <point x="557" y="-260" type="curve" smooth="yes"/>
      <point x="451" y="-260"/>
      <point x="363" y="-249"/>
      <point x="291" y="-229" type="curve"/>
      <point x="278" y="-365" type="line"/>
      <point x="357" y="-393"/>
      <point x="461" y="-406"/>
    </contour>
    <contour>
      <point x="595" y="154" type="curve" smooth="yes"/>
      <point x="381" y="154"/>
      <point x="338" y="172"/>
      <point x="334" y="262" type="curve" smooth="yes"/>
      <point x="326" y="423"/>
      <point x="327" y="567"/>
      <point x="327" y="746" type="curve" smooth="yes"/>
      <point x="327" y="963"/>
      <point x="355" y="990"/>
      <point x="575" y="990" type="curve" smooth="yes"/>
      <point x="771" y="990"/>
      <point x="829" y="942"/>
      <point x="829" y="833" type="curve" smooth="yes"/>
      <point x="828" y="243" type="line" smooth="yes"/>
      <point x="828" y="171"/>
      <point x="700" y="154"/>
    </contour>
    <contour>
      <point x="571" y="1097" type="move" name="top"/>
    </contour>
    <contour>
      <point x="591" y="0" type="move" name="bot"/>
    </contour>
  </outline>
</glyph>
<glyph name="h" format="1">
  <advance width="1182"/>
  <unicode hex="0068"/>
  <outline>
    <contour>
      <point x="160" y="0" type="line"/>
      <point x="358" y="0" type="line"/>
      <point x="358" y="885" type="line" smooth="yes"/>
      <point x="358" y="958"/>
      <point x="489" y="990"/>
      <point x="589" y="990" type="curve" smooth="yes"/>
      <point x="833" y="990"/>
      <point x="838" y="960"/>
      <point x="838" y="666" type="curve" smooth="yes"/>
      <point x="838" y="0" type="line"/>
      <point x="1035" y="0" type="line"/>
      <point x="1036" y="736" type="line" smooth="yes"/>
      <point x="1036" y="970"/>
      <point x="1010" y="1128"/>
      <point x="656" y="1128" type="curve" smooth="yes"/>
      <point x="507" y="1128"/>
      <point x="406" y="1090"/>
      <point x="358" y="1014" type="curve"/>
      <point x="358" y="1502" type="line"/>
      <point x="160" y="1486" type="line"/>
    </contour>
    <contour>
      <point x="590" y="549" type="move" name="center"/>
    </contour>
    <contour>
      <point x="674" y="1299" type="move" name="top"/>
    </contour>
    <contour>
      <point x="592" y="1097" type="move" name="mid"/>
    </contour>
    <contour>
      <point x="592" y="0" type="move" name="bot"/>
    </contour>
  </outline>
</glyph>
<glyph name="m" format="1">
  <advance width="1762"/>
  <unicode hex="006D"/>
  <outline>
    <contour>
      <point x="160" y="0" type="line"/>
      <point x="357" y="0" type="line"/>
      <point x="358" y="897" type="line" smooth="yes"/>
      <point x="358" y="970"/>
      <point x="482" y="990"/>
      <point x="570" y="990" type="curve" smooth="yes"/>
      <point x="788" y="990"/>
      <point x="793" y="936"/>
      <point x="793" y="730" type="curve" smooth="yes"/>
      <point x="793" y="0" type="line"/>
      <point x="990" y="0" type="line"/>
      <point x="989" y="784" type="line" smooth="yes"/>
      <point x="989" y="826"/>
      <point x="989.490366526" y="861.760122147"/>
      <point x="998.927324877" y="890.605360917" type="curve" smooth="yes"/>
      <point x="1021.13349532" y="958.481287122"/>
      <point x="1082" y="990"/>
      <point x="1239" y="990" type="curve" smooth="yes"/>
      <point x="1418" y="990"/>
      <point x="1419" y="898"/>
      <point x="1419" y="666" type="curve" smooth="yes"/>
      <point x="1419" y="0" type="line"/>
      <point x="1616" y="0" type="line"/>
      <point x="1616" y="673" type="line" smooth="yes"/>
      <point x="1616" y="1026"/>
      <point x="1560" y="1128"/>
      <point x="1258" y="1128" type="curve" smooth="yes"/>
      <point x="1097" y="1128"/>
      <point x="995" y="1075"/>
      <point x="942" y="972" type="curve"/>
      <point x="900" y="1084"/>
      <point x="811" y="1126"/>
      <point x="664" y="1126" type="curve" smooth="yes"/>
      <point x="518" y="1126"/>
      <point x="415" y="1090"/>
      <point x="359" y="977" type="curve"/>
      <point x="340" y="1097" type="line"/>
      <point x="160" y="1097" type="line"/>
    </contour>
    <contour>
      <point x="885" y="0" type="move" name="bot"/>
    </contour>
    <contour>
      <point x="885" y="1097" type="move" name="top"/>
    </contour>
  </outline>
</glyph>
<glyph name="o" format="1">
  <advance width="1188"/>
  <unicode hex="006F"/>
  <outline>
    <contour>
      <point x="595" y="123" type="curve" smooth="yes"/>
      <point x="418" y="123"/>
      <point x="340" y="142"/>
      <point x="340" y="215" type="curve"/>
      <point x="340" y="215"/>
      <point x="339" y="895"/>
      <point x="339" y="895" type="curve"/>
      <point x="339" y="989"/>
      <point x="475" y="989"/>
      <point x="594" y="989" type="curve" smooth="yes"/>
      <point x="713" y="989"/>
      <point x="849" y="989"/>
      <point x="849" y="895" type="curve"/>
      <point x="849" y="895"/>
      <point x="848" y="215"/>
      <point x="848" y="215" type="curve"/>
      <point x="848" y="140"/>
      <point x="772" y="123"/>
    </contour>
    <contour>
      <point x="593" y="-15" type="curve" smooth="yes"/>
      <point x="1029" y="-15"/>
      <point x="1056" y="105"/>
      <point x="1056" y="557" type="curve" smooth="yes"/>
      <point x="1056.0" y="566.722059065"/>
      <point x="1055.98136283" y="576.28408152"/>
      <point x="1055.9414462" y="585.688571004" type="curve" smooth="yes"/>
      <point x="1053.99827151" y="1043.50695993"/>
      <point x="1001.62654954" y="1128.0"/>
      <point x="594" y="1128" type="curve" smooth="yes"/>
      <point x="186.064573288" y="1128.0"/>
      <point x="133.922563595" y="1043.37886298"/>
      <point x="132.054223239" y="584.647198386" type="curve" smooth="yes"/>
      <point x="132.01728757" y="575.578422089"/>
      <point x="132.0" y="566.363434851"/>
      <point x="132" y="557" type="curve" smooth="yes"/>
      <point x="132" y="106"/>
      <point x="158" y="-15"/>
    </contour>
    <contour>
      <point x="595" y="1097" type="move" name="top"/>
    </contour>
    <contour>
      <point x="594" y="0" type="move" name="bot"/>
    </contour>
    <contour>
      <point x="672" y="0" type="move" name="ogonek"/>
    </contour>
  </outline>
</glyph>
<glyph name="p" format="1">
  <advance width="1192"/>
  <unicode hex="0070"/>
  <outline>
    <contour>
      <point x="160" y="-387" type="line"/>
      <point x="357" y="-372" type="line"/>
      <point x="357" y="103" type="line"/>
      <point x="382" y="26"/>
      <point x="486" y="-15"/>
      <point x="659" y="-15" type="curve" smooth="yes"/>
      <point x="1018" y="-15"/>
      <point x="1060" y="145"/>
      <point x="1060" y="541" type="curve" smooth="yes"/>
      <point x="1060" y="592" type="line" smooth="yes"/>
      <point x="1060" y="975"/>
      <point x="1017.3604728" y="1128.0"/>
      <point x="678" y="1128" type="curve" smooth="yes"/>
      <point x="503" y="1128"/>
      <point x="398" y="1076"/>
      <point x="358" y="976" type="curve"/>
      <point x="339" y="1097" type="line"/>
      <point x="160" y="1097" type="line"/>
    </contour>
    <contour>
      <point x="613" y="122" type="curve" smooth="yes"/>
      <point x="395" y="122"/>
      <point x="353" y="181"/>
      <point x="353" y="449" type="curve" smooth="yes"/>
      <point x="353" y="693" type="line" smooth="yes"/>
      <point x="353" y="946"/>
      <point x="359" y="990"/>
      <point x="613" y="990" type="curve" smooth="yes"/>
      <point x="896.225700458" y="990.0"/>
      <point x="865" y="880"/>
      <point x="865" y="741" type="curve" smooth="yes"/>
      <point x="865" y="415" type="line" smooth="yes"/>
      <point x="865" y="156"/>
      <point x="859" y="122"/>
    </contour>
    <contour>
      <point x="596" y="0" type="move" name="bot"/>
    </contour>
    <contour>
      <point x="596" y="1097" type="move" name="top"/>
    </contour>
  </outline>
</glyph>
<glyph name="q" format="1">
  <advance width="1192"/>
  <unicode hex="0071"/>
  <outline>
    <contour>
      <point x="1060" y="-387" type="line"/>
      <point x="1060" y="1097" type="line"/>
      <point x="881" y="1097" type="line"/>
      <point x="862" y="976" type="line"/>
      <point x="822" y="1076"/>
      <point x="717" y="1128"/>
      <point x="542" y="1128" type="curve" smooth="yes"/>
      <point x="203" y="1128"/>
      <point x="160" y="975"/>
      <point x="160" y="592" type="curve" smooth="yes"/>
      <point x="160" y="541" type="line" smooth="yes"/>
      <point x="160" y="145"/>
      <point x="202" y="-15"/>
      <point x="561" y="-15" type="curve" smooth="yes"/>
      <point x="734" y="-15"/>
      <point x="838" y="26"/>
      <point x="863" y="103" type="curve"/>
      <point x="863" y="-372" type="line"/>
    </contour>
    <contour>
      <point x="607" y="122" type="curve" smooth="yes"/>
      <point x="361" y="122"/>
      <point x="355" y="156"/>
      <point x="355" y="415" type="curve" smooth="yes"/>
      <point x="355" y="741" type="line" smooth="yes"/>
      <point x="355" y="880"/>
      <point x="324" y="990"/>
      <point x="607" y="990" type="curve" smooth="yes"/>
      <point x="861" y="990"/>
      <point x="867" y="946"/>
      <point x="867" y="693" type="curve" smooth="yes"/>
      <point x="867" y="449" type="line" smooth="yes"/>
      <point x="867" y="181"/>
      <point x="825" y="122"/>
    </contour>
  </outline>
</glyph>
<glyph name="r" format="1">
  <advance width="739"/>
  <unicode hex="0072"/>
  <outline>
    <contour>
      <point x="164" y="0" type="line"/>
      <point x="361" y="0" type="line"/>
      <point x="361" y="471" type="line" smooth="yes"/>
      <point x="361" y="541"/>
      <point x="354" y="624"/>
      <point x="354" y="704" type="curve" smooth="yes"/>
      <point x="354.0" y="914.588235294"/>
      <point x="491.666666667" y="975.0"/>
      <point x="645" y="955" type="curve"/>
      <point x="653" y="1122" type="line"/>
      <point x="553.0" y="1135.33333333"/>
      <point x="411.235294118" y="1085.76470588"/>
      <point x="363" y="974" type="curve"/>
      <point x="343" y="1097" type="line"/>
      <point x="164" y="1097" type="line"/>
    </contour>
    <contour>
      <point x="367" y="1097" type="move" name="top"/>
    </contour>
    <contour>
      <point x="367" y="0" type="move" name="bottom"/>
    </contour>
    <contour>
      <point x="374" y="0" type="move" name="bot"/>
    </contour>
  </outline>
</glyph>
<glyph name="s" format="1">
  <advance width="1034"/>
  <unicode hex="0073"/>
  <outline>
    <contour>
      <point x="566.0" y="-15.0" type="curve" smooth="yes"/>
      <point x="838.0" y="-15.0"/>
      <point x="950.0" y="49.0"/>
      <point x="950.0" y="304.0" type="curve" smooth="yes"/>
      <point x="950.0" y="574.0"/>
      <point x="914" y="618"/>
      <point x="582" y="653" type="curve" smooth="yes"/>
      <point x="496" y="662" type="line" smooth="yes"/>
      <point x="310" y="681"/>
      <point x="304.0" y="702.838536002"/>
      <point x="304.0" y="834.0" type="curve"/>
      <point x="304.0" y="954.0"/>
      <point x="313" y="991"/>
      <point x="523.0" y="991.0" type="curve" smooth="yes"/>
      <point x="631.0" y="991.0"/>
      <point x="689.75" y="988.5"/>
      <point x="723.125" y="968.25" type="curve" smooth="yes"/>
      <point x="756.5" y="948.0"/>
      <point x="764.5" y="910.0"/>
      <point x="771.0" y="839.0" type="curve"/>
      <point x="905.0" y="880.0" type="line"/>
      <point x="905.0" y="1114.0"/>
      <point x="759.0" y="1128.0"/>
      <point x="530.0" y="1128.0" type="curve" smooth="yes"/>
      <point x="241.0" y="1128.0"/>
      <point x="124.0" y="1076.0"/>
      <point x="124.0" y="838.0" type="curve" smooth="yes"/>
      <point x="124.0" y="567.0"/>
      <point x="207" y="533"/>
      <point x="498" y="505" type="curve" smooth="yes"/>
      <point x="589" y="496" type="line" smooth="yes"/>
      <point x="742" y="481"/>
      <point x="770.0" y="471.828093112"/>
      <point x="770.0" y="320.0" type="curve" smooth="yes"/>
      <point x="770.0" y="196.0"/>
      <point x="766.0" y="122.0"/>
      <point x="552.0" y="122.0" type="curve" smooth="yes"/>
      <point x="420.5" y="122.0"/>
      <point x="355.0" y="124.0"/>
      <point x="320.5" y="150.625" type="curve" smooth="yes"/>
      <point x="286.0" y="177.25"/>
      <point x="282.5" y="228.5"/>
      <point x="275.0" y="327.0" type="curve"/>
      <point x="120.0" y="287.0" type="line"/>
      <point x="120.0" y="-5.0"/>
      <point x="288.0" y="-15.0"/>
    </contour>
    <contour>
      <point x="493" y="1097" type="move" name="top"/>
    </contour>
    <contour>
      <point x="493" y="0" type="move" name="bottom"/>
    </contour>
    <contour>
      <point x="508" y="0" type="move" name="bot"/>
    </contour>
  </outline>
</glyph>
<glyph name="t" format="1">
  <advance width="793"/>
  <unicode hex="0074"/>
  <outline>
    <contour>
      <point x="501.389703829" y="-15.2779979036" type="curve" smooth="yes"/>
      <point x="561.576707807" y="-16.4839076245"/>
      <point x="630.272584498" y="-9.95609474182"/>
      <point x="705" y="-1" type="curve"/>
      <point x="709" y="139" type="line"/>
      <point x="507" y="115"/>
      <point x="444" y="129"/>
      <point x="444" y="235" type="curve" smooth="yes"/>
      <point x="444" y="985" type="line"/>
      <point x="666" y="985" type="line"/>
      <point x="666" y="1097" type="line"/>
      <point x="444" y="1097" type="line"/>
      <point x="444" y="1425" type="line"/>
      <point x="248" y="1409" type="line"/>
      <point x="248" y="1097" type="line"/>
      <point x="79" y="1097" type="line"/>
      <point x="79" y="985" type="line"/>
      <point x="248" y="985" type="line"/>
      <point x="248" y="238" type="line" smooth="yes"/>
      <point x="248.0" y="42.1268053055"/>
      <point x="346.529392787" y="-12.1752092264"/>
    </contour>
    <contour>
      <point x="307" y="1257" type="move" name="caron.alt"/>
    </contour>
    <contour>
      <point x="375" y="671" type="move" name="mid"/>
    </contour>
    <contour>
      <point x="351" y="1249" type="move" name="top"/>
    </contour>
    <contour>
      <point x="443" y="0" type="move" name="bot"/>
    </contour>
  </outline>
</glyph>
<glyph name="u" format="1">
  <advance width="1176"/>
  <unicode hex="0075"/>
  <outline>
    <contour>
      <point x="489" y="-15" type="curve" smooth="yes"/>
      <point x="647" y="-15"/>
      <point x="779" y="29"/>
      <point x="816" y="140" type="curve"/>
      <point x="834" y="-1" type="line"/>
      <point x="1016" y="-1" type="line"/>
      <point x="1016" y="1097" type="line"/>
      <point x="817" y="1097" type="line"/>
      <point x="817" y="383" type="line" smooth="yes"/>
      <point x="817.0" y="235.16"/>
      <point x="848.401869159" y="122.0"/>
      <point x="577" y="122" type="curve" smooth="yes"/>
      <point x="319.352941176" y="122.0"/>
      <point x="343.0" y="180.0"/>
      <point x="343" y="460" type="curve" smooth="yes"/>
      <point x="343" y="1097" type="line"/>
      <point x="146" y="1097" type="line"/>
      <point x="146" y="454" type="line" smooth="yes"/>
      <point x="146" y="113"/>
      <point x="205" y="-15"/>
    </contour>
    <contour>
      <point x="580" y="1097" type="move" name="top"/>
    </contour>
    <contour>
      <point x="910" y="0" type="move" name="ogonek"/>
    </contour>
    <contour>
      <point x="584" y="0" type="move" name="bot"/>
    </contour>
  </outline>
</glyph>
<glyph name="v" format="1">
  <advance width="1037"/>
  <unicode hex="0076"/>
  <outline>
    <contour>
      <point x="407" y="0" type="line"/>
      <point x="621" y="0" type="line"/>
      <point x="993" y="1097" type="line"/>
      <point x="790" y="1097" type="line"/>
      <point x="515" y="171" type="line"/>
      <point x="226" y="1097" type="line"/>
      <point x="41" y="1097" type="line"/>
    </contour>
  </outline>
</glyph>
<glyph name="w" format="1">
  <advance width="1594"/>
  <unicode hex="0077"/>
  <outline>
    <contour>
      <point x="373" y="0" type="line"/>
      <point x="575" y="0" type="line"/>
      <point x="803" y="859" type="line"/>
      <point x="1041" y="0" type="line"/>
      <point x="1223" y="0" type="line"/>
      <point x="1509" y="1097" type="line"/>
      <point x="1326" y="1097" type="line"/>
      <point x="1123" y="205" type="line"/>
      <point x="888" y="1097" type="line"/>
      <point x="711" y="1097" type="line"/>
      <point x="481" y="213" type="line"/>
      <point x="265" y="1097" type="line"/>
      <point x="85" y="1097" type="line"/>
    </contour>
    <contour>
      <point x="729" y="1097" type="move" name="top"/>
    </contour>
    <contour>
      <point x="794" y="0" type="move" name="bot"/>
    </contour>
  </outline>
</glyph>
<glyph name="x" format="1">
  <advance width="1033"/>
  <unicode hex="0078"/>
  <outline>
    <contour>
      <point x="63" y="0" type="line"/>
      <point x="248" y="0" type="line"/>
      <point x="539" y="462" type="line"/>
      <point x="612" y="541" type="line"/>
      <point x="959" y="1097" type="line"/>
      <point x="776" y="1097" type="line"/>
      <point x="502" y="666" type="line"/>
      <point x="432" y="597" type="line"/>
    </contour>
    <contour>
      <point x="761" y="0" type="line"/>
      <point x="968" y="0" type="line"/>
      <point x="277" y="1097" type="line"/>
      <point x="71" y="1097" type="line"/>
    </contour>
  </outline>
</glyph>
<glyph name="z" format="1">
  <advance width="913"/>
  <unicode hex="007A"/>
  <outline>
    <contour>
      <point x="136" y="0" type="line"/>
      <point x="815" y="0" type="line"/>
      <point x="824" y="135" type="line"/>
      <point x="318" y="135" type="line"/>
      <point x="818" y="960" type="line"/>
      <point x="809" y="1097" type="line"/>
      <point x="145" y="1097" type="line"/>
      <point x="154" y="960" type="line"/>
      <point x="621" y="960" type="line"/>
      <point x="119" y="141" type="line"/>
    </contour>
    <contour>
      <point x="395" y="1097" type="move" name="top"/>
    </contour>
    <contour>
      <point x="445" y="0" type="move" name="bot"/>
    </contour>
  </outline>
</glyph>
<glyph name="braceleft" format="1">
  <advance width="851"/>
  <unicode hex="007B"/>
  <outline>
    <contour>
      <point x="786" y="-211" type="curve"/>
      <point x="786" y="-87" type="line"/>
      <point x="537" y="-87"/>
      <point x="532" y="-39"/>
      <point x="532" y="287" type="curve" smooth="yes"/>
      <point x="532" y="539"/>
      <point x="503" y="682"/>
      <point x="338" y="713" type="curve"/>
      <point x="503" y="745"/>
      <point x="532" y="888"/>
      <point x="532" y="1140" type="curve" smooth="yes"/>
      <point x="532" y="1466"/>
      <point x="537" y="1514"/>
      <point x="786" y="1514" type="curve"/>
      <point x="786" y="1638" type="line"/>
      <point x="413" y="1638"/>
      <point x="346.990018027" y="1543.99182074"/>
      <point x="343" y="1141" type="curve" smooth="yes"/>
      <point x="340" y="831"/>
      <point x="272" y="802"/>
      <point x="84" y="802" type="curve"/>
      <point x="84" y="625" type="line"/>
      <point x="272" y="625"/>
      <point x="340" y="596"/>
      <point x="343" y="286" type="curve" smooth="yes"/>
      <point x="346.990018027" y="-116.991820737"/>
      <point x="413" y="-211"/>
    </contour>
  </outline>
</glyph>
<glyph name="bar" format="1">
  <advance width="497"/>
  <unicode hex="007C"/>
  <outline>
    <contour>
      <point x="161" y="-176" type="line"/>
      <point x="336" y="-176" type="line"/>
      <point x="336" y="1638" type="line"/>
      <point x="161" y="1638" type="line"/>
    </contour>
  </outline>
</glyph>
<glyph name="braceright" format="1">
  <advance width="850"/>
  <unicode hex="007D"/>
  <outline>
    <contour>
      <point x="94" y="-211" type="line"/>
      <point x="467" y="-211"/>
      <point x="534" y="-117"/>
      <point x="536" y="185" type="curve" smooth="yes"/>
      <point x="537" y="286" type="line" smooth="yes"/>
      <point x="540" y="596"/>
      <point x="608" y="625"/>
      <point x="796" y="625" type="curve"/>
      <point x="796" y="802" type="line"/>
      <point x="608" y="802"/>
      <point x="540" y="831"/>
      <point x="537" y="1141" type="curve" smooth="yes"/>
      <point x="536" y="1242" type="line" smooth="yes"/>
      <point x="534" y="1544"/>
      <point x="467" y="1638"/>
      <point x="94" y="1638" type="curve"/>
      <point x="94" y="1514" type="line"/>
      <point x="343" y="1514"/>
      <point x="348" y="1466"/>
      <point x="348" y="1140" type="curve" smooth="yes"/>
      <point x="348" y="888"/>
      <point x="377" y="745"/>
      <point x="542" y="713" type="curve"/>
      <point x="377" y="682"/>
      <point x="348" y="539"/>
      <point x="348" y="287" type="curve" smooth="yes"/>
      <point x="348" y="-39"/>
      <point x="343" y="-87"/>
      <point x="94" y="-87" type="curve"/>
    </contour>
  </outline>
</glyph>
<glyph name="asciitilde" format="1">
  <advance width="1094"/>
  <unicode hex="007E"/>
  <outline>
    <contour>
      <point x="734" y="632" type="curve" smooth="yes"/>
      <point x="837" y="632"/>
      <point x="922" y="684"/>
      <point x="961" y="847" type="curve"/>
      <point x="927" y="897" type="line"/>
      <point x="850" y="835"/>
      <point x="793" y="814"/>
      <point x="742" y="814" type="curve" smooth="yes"/>
      <point x="623" y="814"/>
      <point x="542" y="932"/>
      <point x="343" y="932" type="curve" smooth="yes"/>
      <point x="250" y="932"/>
      <point x="172" y="887"/>
      <point x="134" y="745" type="curve"/>
      <point x="163" y="703" type="line"/>
      <point x="213" y="749"/>
      <point x="261" y="766"/>
      <point x="309" y="766" type="curve" smooth="yes"/>
      <point x="444" y="766"/>
      <point x="576" y="632"/>
    </contour>
  </outline>
</glyph>
<glyph name="sterling" format="1">
  <advance width="1497"/>
  <unicode hex="00A3"/>
  <outline>
    <contour>
      <point x="170" y="0" type="line"/>
      <point x="182.35771209" y="0.0"/>
      <point x="194.229423807" y="0.385448571335"/>
      <point x="205.612834059" y="1.157112745" type="curve" smooth="yes"/>
      <point x="318.585807321" y="8.81537983093"/>
      <point x="383.464617729" y="54.5130905509"/>
      <point x="398" y="139" type="curve"/>
      <point x="428" y="6"/>
      <point x="608" y="0"/>
      <point x="857" y="0" type="curve" smooth="yes"/>
      <point x="1167.40759474" y="0.0"/>
      <point x="1264.8473754" y="22.7236129169"/>
      <point x="1302.21546134" y="186.492458762" type="curve" smooth="yes"/>
      <point x="1316.25131322" y="248.005785006"/>
      <point x="1321.81204754" y="329.418249011"/>
      <point x="1327" y="437" type="curve"/>
      <point x="1172" y="465" type="line"/>
      <point x="1157" y="238" type="line" smooth="yes"/>
      <point x="1152" y="169"/>
      <point x="1033" y="161"/>
      <point x="877" y="161" type="curve" smooth="yes"/>
      <point x="651" y="161"/>
      <point x="516" y="176"/>
      <point x="500" y="227" type="curve"/>
      <point x="515" y="379"/>
      <point x="522" y="546"/>
      <point x="524" y="701" type="curve"/>
      <point x="997" y="701" type="line"/>
      <point x="997" y="840" type="line"/>
      <point x="521" y="840" type="line"/>
      <point x="515" y="963"/>
      <point x="504" y="1107"/>
      <point x="504" y="1225" type="curve" smooth="yes"/>
      <point x="504" y="1325"/>
      <point x="530" y="1371"/>
      <point x="874" y="1371" type="curve" smooth="yes"/>
      <point x="1020" y="1371"/>
      <point x="1089" y="1362"/>
      <point x="1097" y="1289" type="curve" smooth="yes"/>
      <point x="1105" y="1217"/>
      <point x="1106" y="1126"/>
      <point x="1109" y="1054" type="curve"/>
      <point x="1286" y="1077" type="line"/>
      <point x="1279.76323581" y="1188.32624084"/>
      <point x="1274.88787458" y="1275.4389575"/>
      <point x="1258.69844063" y="1342.61384872" type="curve" smooth="yes"/>
      <point x="1222.97174161" y="1490.85480183"/>
      <point x="1132.14633405" y="1542.0"/>
      <point x="850" y="1542" type="curve" smooth="yes"/>
      <point x="481" y="1542"/>
      <point x="304" y="1488"/>
      <point x="304" y="1112" type="curve" smooth="yes"/>
      <point x="304" y="1023"/>
      <point x="313" y="931"/>
      <point x="320" y="841" type="curve"/>
      <point x="172" y="841" type="line"/>
      <point x="172" y="702" type="line"/>
      <point x="324" y="702" type="line"/>
      <point x="323" y="578"/>
      <point x="322" y="420"/>
      <point x="319" y="341" type="curve" smooth="yes"/>
      <point x="315" y="245"/>
      <point x="297" y="229"/>
      <point x="170" y="220" type="curve"/>
    </contour>
  </outline>
</glyph>
<glyph name="brokenbar" format="1">
  <advance width="509"/>
  <unicode hex="00A6"/>
  <outline>
    <contour>
      <point x="170" y="-242" type="line"/>
      <point x="357" y="-242" type="line"/>
      <point x="357" y="570" type="line"/>
      <point x="170" y="570" type="line"/>
    </contour>
    <contour>
      <point x="170" y="826" type="line"/>
      <point x="357" y="826" type="line"/>
      <point x="357" y="1638" type="line"/>
      <point x="170" y="1638" type="line"/>
    </contour>
  </outline>
</glyph>
<glyph name="guillemotleft" format="1">
  <advance width="1231"/>
  <unicode hex="00AB"/>
  <outline>
    <contour>
      <point x="598" y="253" type="line"/>
      <point x="693" y="366" type="line"/>
      <point x="272" y="726" type="line"/>
      <point x="693" y="1086" type="line"/>
      <point x="598" y="1199" type="line"/>
      <point x="123" y="775" type="line"/>
      <point x="123" y="677" type="line"/>
    </contour>
    <contour>
      <point x="997" y="253" type="line"/>
      <point x="1092" y="366" type="line"/>
      <point x="671" y="726" type="line"/>
      <point x="1092" y="1086" type="line"/>
      <point x="997" y="1199" type="line"/>
      <point x="523" y="775" type="line"/>
      <point x="523" y="677" type="line"/>
    </contour>
  </outline>
</glyph>
<glyph name="plusminus" format="1">
  <advance width="1212"/>
  <unicode hex="00B1"/>
  <outline>
    <contour>
      <point x="531" y="262" type="line"/>
      <point x="681" y="262" type="line"/>
      <point x="681" y="647" type="line"/>
      <point x="1068" y="647" type="line"/>
      <point x="1068" y="797" type="line"/>
      <point x="681" y="797" type="line"/>
      <point x="681" y="1186" type="line"/>
      <point x="531" y="1186" type="line"/>
      <point x="531" y="797" type="line"/>
      <point x="144" y="797" type="line"/>
      <point x="144" y="647" type="line"/>
      <point x="531" y="647" type="line"/>
    </contour>
    <contour>
      <point x="144" y="0" type="line"/>
      <point x="1068" y="0" type="line"/>
      <point x="1068" y="150" type="line"/>
      <point x="144" y="150" type="line"/>
    </contour>
  </outline>
</glyph>
<glyph name="acute" format="1">
  <advance width="670"/>
  <unicode hex="00B4"/>
  <outline>
    <contour>
      <point x="126" y="1287" type="line" smooth="yes"/>
      <point x="126" y="1288"/>
      <point x="496" y="1425"/>
      <point x="521" y="1436" type="curve" smooth="yes"/>
      <point x="570" y="1457"/>
      <point x="592" y="1501"/>
      <point x="592" y="1540" type="curve" smooth="yes"/>
      <point x="592" y="1591"/>
      <point x="555" y="1640"/>
      <point x="489" y="1640" type="curve" smooth="yes"/>
      <point x="457" y="1640"/>
      <point x="429" y="1624"/>
      <point x="405" y="1605" type="curve" smooth="yes"/>
      <point x="367" y="1573"/>
      <point x="109" y="1308"/>
      <point x="109" y="1308" type="curve"/>
      <point x="117.5" y="1297.5" type="line"/>
    </contour>
    <contour>
      <point x="325" y="1097" type="move" name="_top"/>
    </contour>
  </outline>
</glyph>
<glyph name="paragraph" format="1">
  <advance width="1130"/>
  <unicode hex="00B6"/>
  <outline>
    <contour>
      <point x="536" y="-228" type="line"/>
      <point x="658" y="-228" type="line"/>
      <point x="658" y="1385" type="line"/>
      <point x="867" y="1385" type="line"/>
      <point x="867" y="-228" type="line"/>
      <point x="977" y="-228" type="line"/>
      <point x="977" y="1490" type="line"/>
      <point x="452" y="1490" type="line" smooth="yes"/>
      <point x="165" y="1490"/>
      <point x="34" y="1380"/>
      <point x="34" y="1139" type="curve" smooth="yes"/>
      <point x="34" y="916"/>
      <point x="223" y="806"/>
      <point x="536" y="806" type="curve"/>
    </contour>
  </outline>
</glyph>
<glyph name="cedilla" format="1">
  <advance width="723"/>
  <unicode hex="00B8"/>
  <outline>
    <contour>
      <point x="363" y="-542" type="curve" smooth="yes"/>
      <point x="491" y="-542"/>
      <point x="608" y="-480"/>
      <point x="608" y="-354" type="curve" smooth="yes"/>
      <point x="608" y="-204"/>
      <point x="521" y="-176"/>
      <point x="389" y="-158" type="curve"/>
      <point x="438" y="10" type="line"/>
      <point x="329" y="10" type="line"/>
      <point x="291" y="-134" type="line" smooth="yes"/>
      <point x="270" y="-213"/>
      <point x="258" y="-261"/>
      <point x="254" y="-279" type="curve"/>
      <point x="346" y="-279"/>
      <point x="392" y="-308"/>
      <point x="392" y="-366" type="curve" smooth="yes"/>
      <point x="392" y="-406"/>
      <point x="367" y="-420"/>
      <point x="333" y="-420" type="curve" smooth="yes"/>
      <point x="275" y="-420"/>
      <point x="191" y="-379"/>
      <point x="171" y="-370" type="curve"/>
      <point x="124" y="-460" type="line"/>
      <point x="187" y="-514"/>
      <point x="278" y="-542"/>
    </contour>
    <contour>
      <point x="378" y="0" type="move" name="_bot"/>
    </contour>
  </outline>
</glyph>
<glyph name="onequarter" format="1">
  <advance width="885"/>
  <unicode hex="00BC"/>
  <outline>
    <contour>
      <point x="428" y="0" type="line"/>
      <point x="519" y="0" type="line"/>
      <point x="519" y="152" type="line"/>
      <point x="621" y="152" type="line"/>
      <point x="621" y="220" type="line"/>
      <point x="519" y="220" type="line"/>
      <point x="519" y="616" type="line"/>
      <point x="407" y="616" type="line"/>
      <point x="176" y="220" type="line"/>
      <point x="214" y="152" type="line"/>
      <point x="428" y="152" type="line"/>
    </contour>
    <contour>
      <point x="399" y="898" type="line"/>
      <point x="490" y="898" type="line"/>
      <point x="490" y="1499" type="line"/>
      <point x="412" y="1499" type="line"/>
      <point x="412" y="1458"/>
      <point x="382" y="1431"/>
      <point x="330" y="1431" type="curve"/>
      <point x="330" y="1378" type="line"/>
      <point x="399" y="1378" type="line"/>
    </contour>
    <contour>
      <point x="137" y="734" type="line"/>
      <point x="757" y="734" type="line"/>
      <point x="757" y="805" type="line"/>
      <point x="137" y="805" type="line"/>
    </contour>
    <contour>
      <point x="256" y="220" type="line"/>
      <point x="347" y="390"/>
      <point x="404" y="498"/>
      <point x="428" y="544" type="curve"/>
      <point x="428" y="220" type="line"/>
    </contour>
  </outline>
</glyph>
<glyph name="AE" format="1">
  <advance width="2077"/>
  <unicode hex="00C6"/>
  <outline>
    <contour>
      <point x="100" y="0" type="line"/>
      <point x="337" y="0" type="line"/>
      <point x="552" y="381" type="line"/>
      <point x="1062" y="381" type="line"/>
      <point x="1062" y="0" type="line"/>
      <point x="1936" y="0" type="line"/>
      <point x="1936" y="167" type="line"/>
      <point x="1272" y="167" type="line"/>
      <point x="1272" y="697" type="line"/>
      <point x="1806" y="697" type="line"/>
      <point x="1806" y="864" type="line"/>
      <point x="1272" y="864" type="line"/>
      <point x="1272" y="1323" type="line"/>
      <point x="1917" y="1323" type="line"/>
      <point x="1917" y="1490" type="line"/>
      <point x="936" y="1490" type="line"/>
    </contour>
    <contour>
      <point x="618" y="523" type="line"/>
      <point x="1062" y="1342" type="line"/>
      <point x="1062" y="523" type="line"/>
    </contour>
    <contour>
      <point x="1039" y="1490" type="move" name="top"/>
    </contour>
  </outline>
</glyph>
<glyph name="Oslash" format="1">
  <advance width="1444"/>
  <unicode hex="00D8"/>
  <outline>
    <contour>
      <point x="350" y="-300" type="line"/>
      <point x="463" y="-300" type="line"/>
      <point x="1074" y="1759" type="line"/>
      <point x="961" y="1759" type="line"/>
    </contour>
    <component base="O"/>
    <contour>
      <point x="728" y="1490" type="move" name="top"/>
    </contour>
  </outline>
</glyph>
<glyph name="Thorn" format="1">
  <advance width="1302"/>
  <unicode hex="00DE"/>
  <outline>
    <contour>
      <point x="178" y="0" type="line"/>
      <point x="378" y="0" type="line"/>
      <point x="378" y="383" type="line"/>
      <point x="596" y="383" type="line" smooth="yes"/>
      <point x="827.057692308" y="383.0"/>
      <point x="1183.0" y="343.948837209"/>
      <point x="1183" y="832" type="curve" smooth="yes"/>
      <point x="1183.0" y="842.362619629"/>
      <point x="1182.89939303" y="852.495914546"/>
      <point x="1182.69512081" y="862.404693495" type="curve" smooth="yes"/>
      <point x="1175.38896428" y="1216.80966094"/>
      <point x="1035.46784587" y="1284.0"/>
      <point x="623" y="1284" type="curve" smooth="yes"/>
      <point x="378" y="1284" type="line"/>
      <point x="378" y="1490" type="line"/>
      <point x="178" y="1490" type="line"/>
    </contour>
    <contour>
      <point x="378" y="551" type="line"/>
      <point x="378" y="1120" type="line"/>
      <point x="610" y="1120" type="line" smooth="yes"/>
      <point x="942" y="1120"/>
      <point x="984" y="1102"/>
      <point x="984" y="832" type="curve" smooth="yes"/>
      <point x="984.0" y="630.0"/>
      <point x="980" y="551"/>
      <point x="701" y="551" type="curve" smooth="yes"/>
    </contour>
  </outline>
</glyph>
<glyph name="ae" format="1">
  <advance width="1782"/>
  <unicode hex="00E6"/>
  <outline>
    <contour>
      <point x="471" y="-15" type="curve" smooth="yes"/>
      <point x="669" y="-15"/>
      <point x="804" y="8"/>
      <point x="865" y="139" type="curve"/>
      <point x="925" y="33"/>
      <point x="1043" y="-15"/>
      <point x="1275" y="-15" type="curve" smooth="yes"/>
      <point x="1537" y="-15"/>
      <point x="1602" y="34"/>
      <point x="1611" y="306" type="curve"/>
      <point x="1458" y="334" type="line"/>
      <point x="1444" y="206"/>
      <point x="1481" y="122"/>
      <point x="1258" y="122" type="curve" smooth="yes"/>
      <point x="996" y="122"/>
      <point x="989" y="197"/>
      <point x="989" y="399" type="curve" smooth="yes"/>
      <point x="989" y="550" type="line"/>
      <point x="1489" y="550" type="line" smooth="yes"/>
      <point x="1538" y="550"/>
      <point x="1589" y="559"/>
      <point x="1638" y="564" type="curve"/>
      <point x="1638" y="1030"/>
      <point x="1604" y="1128"/>
      <point x="1246" y="1128" type="curve" smooth="yes"/>
      <point x="1068" y="1128"/>
      <point x="960" y="1100"/>
      <point x="894" y="1013" type="curve"/>
      <point x="833" y="1096"/>
      <point x="737" y="1128"/>
      <point x="594" y="1128" type="curve" smooth="yes"/>
      <point x="359" y="1128"/>
      <point x="200" y="1104"/>
      <point x="200" y="877" type="curve" smooth="yes"/>
      <point x="200" y="862"/>
      <point x="200" y="846"/>
      <point x="202" y="830" type="curve"/>
      <point x="355" y="824" type="line"/>
      <point x="360" y="964"/>
      <point x="341" y="991"/>
      <point x="581" y="991" type="curve" smooth="yes"/>
      <point x="738" y="991"/>
      <point x="792" y="970"/>
      <point x="792" y="901" type="curve" smooth="yes"/>
      <point x="792" y="604" type="line"/>
      <point x="404" y="604"/>
      <point x="138" y="577"/>
      <point x="138" y="354" type="curve" smooth="yes"/>
      <point x="138" y="86"/>
      <point x="205" y="-15"/>
    </contour>
    <contour>
      <point x="498" y="122" type="curve" smooth="yes"/>
      <point x="322" y="122"/>
      <point x="320" y="155"/>
      <point x="320" y="341" type="curve" smooth="yes"/>
      <point x="320" y="354" type="line" smooth="yes"/>
      <point x="320" y="443"/>
      <point x="397" y="485"/>
      <point x="792" y="485" type="curve"/>
      <point x="792" y="314" type="line" smooth="yes"/>
      <point x="792" y="203"/>
      <point x="718" y="122"/>
    </contour>
    <contour>
      <point x="989" y="655" type="line"/>
      <point x="995" y="909"/>
      <point x="972" y="991"/>
      <point x="1245" y="991" type="curve" smooth="yes"/>
      <point x="1384" y="991"/>
      <point x="1425" y="971"/>
      <point x="1431" y="889" type="curve" smooth="yes"/>
      <point x="1437" y="813"/>
      <point x="1440" y="735"/>
      <point x="1441" y="655" type="curve"/>
    </contour>
    <contour>
      <point x="857" y="1097" type="move" name="top"/>
    </contour>
  </outline>
</glyph>
<glyph name="oslash" format="1">
  <advance width="1212"/>
  <unicode hex="00F8"/>
  <outline>
    <contour>
      <point x="408" y="-200" type="line"/>
      <point x="501" y="-200" type="line"/>
      <point x="541" y="-14" type="line"/>
      <point x="561" y="-15"/>
      <point x="583" y="-15"/>
      <point x="605" y="-15" type="curve" smooth="yes"/>
      <point x="607" y="-15" type="line" smooth="yes"/>
      <point x="1042" y="-15"/>
      <point x="1068" y="101"/>
      <point x="1068" y="558" type="curve" smooth="yes"/>
      <point x="1068" y="956"/>
      <point x="1035" y="1087"/>
      <point x="783" y="1119" type="curve"/>
      <point x="822" y="1299" type="line"/>
      <point x="729" y="1299" type="line"/>
      <point x="692" y="1126" type="line"/>
      <point x="665" y="1127"/>
      <point x="637" y="1128"/>
      <point x="606" y="1128" type="curve" smooth="yes"/>
      <point x="190" y="1128"/>
      <point x="144" y="1035"/>
      <point x="144" y="558" type="curve" smooth="yes"/>
      <point x="144" y="163"/>
      <point x="163" y="23"/>
      <point x="449" y="-8" type="curve"/>
    </contour>
    <contour>
      <point x="605" y="123" type="line" smooth="yes"/>
      <point x="593" y="123"/>
      <point x="581" y="124"/>
      <point x="570" y="124" type="curve"/>
      <point x="754" y="982" type="line"/>
      <point x="815" y="972"/>
      <point x="861" y="949"/>
      <point x="861" y="895" type="curve" smooth="yes"/>
      <point x="861" y="782"/>
      <point x="871" y="667"/>
      <point x="871" y="546" type="curve" smooth="yes"/>
      <point x="871" y="437"/>
      <point x="860" y="319"/>
      <point x="860" y="215" type="curve" smooth="yes"/>
      <point x="860" y="140"/>
      <point x="784" y="127"/>
      <point x="607" y="123" type="curve" smooth="yes"/>
    </contour>
    <contour>
      <point x="479" y="130" type="line"/>
      <point x="392" y="140"/>
      <point x="352" y="161"/>
      <point x="352" y="215" type="curve" smooth="yes"/>
      <point x="352" y="319"/>
      <point x="341" y="437"/>
      <point x="341" y="546" type="curve" smooth="yes"/>
      <point x="341" y="667"/>
      <point x="351" y="782"/>
      <point x="351" y="895" type="curve" smooth="yes"/>
      <point x="351" y="989"/>
      <point x="487" y="989"/>
      <point x="606" y="989" type="curve" smooth="yes"/>
      <point x="663" y="989" type="line"/>
    </contour>
    <contour>
      <point x="588" y="1097" type="move" name="top"/>
    </contour>
  </outline>
</glyph>
<glyph name="Hbar" format="1">
  <advance width="1512"/>
  <unicode hex="0126"/>
  <outline>
    <contour>
      <point x="221" y="0" type="line"/>
      <point x="424" y="0" type="line"/>
      <point x="424" y="684" type="line"/>
      <point x="1090" y="684" type="line"/>
      <point x="1090" y="0" type="line"/>
      <point x="1293" y="0" type="line"/>
      <point x="1293" y="1083" type="line"/>
      <point x="1370" y="1083" type="line"/>
      <point x="1370" y="1189" type="line"/>
      <point x="1293" y="1189" type="line"/>
      <point x="1293" y="1490" type="line"/>
      <point x="1090" y="1490" type="line"/>
      <point x="1090" y="1189" type="line"/>
      <point x="424" y="1189" type="line"/>
      <point x="424" y="1490" type="line"/>
      <point x="221" y="1490" type="line"/>
      <point x="221" y="1189" type="line"/>
      <point x="143" y="1189" type="line"/>
      <point x="143" y="1083" type="line"/>
      <point x="221" y="1083" type="line"/>
    </contour>
    <contour>
      <point x="424" y="842" type="line"/>
      <point x="424" y="1083" type="line"/>
      <point x="1090" y="1083" type="line"/>
      <point x="1090" y="842" type="line"/>
    </contour>
  </outline>
</glyph>
<glyph name="dotlessi" format="1">
  <advance width="496"/>
  <unicode hex="0131"/>
  <outline>
    <contour>
      <point x="159" y="0" type="line"/>
      <point x="356" y="0" type="line"/>
      <point x="356" y="1097" type="line"/>
      <point x="159" y="1097" type="line"/>
    </contour>
    <contour>
      <point x="251" y="1097" type="move" name="top"/>
    </contour>
    <contour>
      <point x="258" y="0" type="move" name="ogonek"/>
    </contour>
  </outline>
</glyph>
<glyph name="kgreenlandic" format="1">
  <advance width="1175"/>
  <unicode hex="0138"/>
  <outline>
    <contour>
      <point x="156" y="0" type="line"/>
      <point x="354" y="0" type="line"/>
      <point x="354" y="439" type="line"/>
      <point x="446" y="542" type="line"/>
      <point x="828" y="0" type="line"/>
      <point x="1045" y="0" type="line"/>
      <point x="596" y="628" type="line"/>
      <point x="1009" y="1097" type="line"/>
      <point x="785" y="1097" type="line"/>
      <point x="524" y="782" type="line" smooth="yes"/>
      <point x="470" y="717"/>
      <point x="409" y="655"/>
      <point x="353" y="595" type="curve"/>
      <point x="353" y="644"/>
      <point x="354" y="702"/>
      <point x="354" y="752" type="curve" smooth="yes"/>
      <point x="354" y="1098" type="line"/>
      <point x="156" y="1082" type="line"/>
    </contour>
  </outline>
</glyph>
<glyph name="Lslash" format="1">
  <advance width="1163"/>
  <unicode hex="0141"/>
  <outline>
    <contour>
      <point x="270" y="0" type="line"/>
      <point x="1047" y="0" type="line"/>
      <point x="1047" y="171" type="line"/>
      <point x="473" y="171" type="line"/>
      <point x="473" y="714" type="line"/>
      <point x="770" y="867" type="line"/>
      <point x="770" y="1060" type="line"/>
      <point x="473" y="907" type="line"/>
      <point x="473" y="1490" type="line"/>
      <point x="270" y="1490" type="line"/>
      <point x="270" y="803" type="line"/>
      <point x="136" y="733" type="line"/>
      <point x="136" y="540" type="line"/>
      <point x="270" y="610" type="line"/>
    </contour>
  </outline>
</glyph>
<glyph name="eng" format="1">
  <advance width="1174"/>
  <unicode hex="014B"/>
  <outline>
    <contour>
      <point x="590" y="-406" type="line"/>
      <point x="961" y="-406"/>
      <point x="1022" y="-284"/>
      <point x="1025" y="90" type="curve"/>
      <point x="1025" y="609" type="line"/>
      <point x="1025" y="974"/>
      <point x="990" y="1128"/>
      <point x="682" y="1128" type="curve" smooth="yes"/>
      <point x="536" y="1128"/>
      <point x="392" y="1091"/>
      <point x="355" y="974" type="curve"/>
      <point x="336" y="1097" type="line"/>
      <point x="156" y="1097" type="line"/>
      <point x="156" y="0" type="line"/>
      <point x="353" y="0" type="line"/>
      <point x="353" y="780" type="line" smooth="yes"/>
      <point x="353" y="924"/>
      <point x="393" y="990"/>
      <point x="649" y="990" type="curve" smooth="yes"/>
      <point x="816" y="990"/>
      <point x="827" y="971"/>
      <point x="827" y="664" type="curve" smooth="yes"/>
      <point x="827" y="-97" type="line" smooth="yes"/>
      <point x="827" y="-197"/>
      <point x="805" y="-260"/>
      <point x="557" y="-260" type="curve"/>
    </contour>
  </outline>
</glyph>
<glyph name="florin" format="1">
  <advance width="857"/>
  <unicode hex="0192"/>
  <outline>
    <contour>
      <point x="292" y="-319" type="curve" smooth="yes"/>
      <point x="478" y="-315"/>
      <point x="505" y="-222"/>
      <point x="505" y="-56" type="curve" smooth="yes"/>
      <point x="505" y="757" type="line"/>
      <point x="703" y="757" type="line"/>
      <point x="703" y="887" type="line"/>
      <point x="505" y="887" type="line"/>
      <point x="504" y="1256" type="line" smooth="yes"/>
      <point x="504" y="1372"/>
      <point x="504" y="1392"/>
      <point x="635" y="1392" type="curve" smooth="yes"/>
      <point x="661" y="1392"/>
      <point x="687" y="1391"/>
      <point x="713" y="1389" type="curve"/>
      <point x="713" y="1543" type="line"/>
      <point x="650" y="1555"/>
      <point x="590" y="1561"/>
      <point x="537" y="1561" type="curve" smooth="yes"/>
      <point x="375" y="1561"/>
      <point x="306" y="1484"/>
      <point x="307" y="1259" type="curve" smooth="yes"/>
      <point x="308" y="887" type="line"/>
      <point x="146" y="887" type="line"/>
      <point x="146" y="757" type="line"/>
      <point x="308" y="757" type="line"/>
      <point x="308" y="-167" type="line"/>
      <point x="140" y="-167" type="line"/>
      <point x="140" y="-299" type="line"/>
      <point x="230" y="-315"/>
      <point x="264" y="-319"/>
    </contour>
  </outline>
</glyph>
<glyph name="apostrophemod" format="1">
  <advance width="600"/>
  <unicode hex="02BC"/>
  <outline>
    <contour>
      <point x="60" y="1357" type="curve" smooth="yes"/>
      <point x="200" y="1357"/>
      <point x="316" y="1549"/>
      <point x="316" y="1718" type="curve" smooth="yes"/>
      <point x="316" y="1813"/>
      <point x="263" y="1897"/>
      <point x="175" y="1897" type="curve" smooth="yes"/>
      <point x="82" y="1897"/>
      <point x="28" y="1828"/>
      <point x="28" y="1742" type="curve" smooth="yes"/>
      <point x="28" y="1658"/>
      <point x="87" y="1588"/>
      <point x="172" y="1588" type="curve"/>
      <point x="172" y="1499"/>
      <point x="88" y="1429"/>
      <point x="0" y="1429" type="curve"/>
      <point x="0" y="1361" type="line"/>
      <point x="11" y="1358"/>
      <point x="31" y="1357"/>
    </contour>
    <contour>
      <point x="314" y="1097" type="move" name="_top"/>
    </contour>
  </outline>
</glyph>
<glyph name="uni02C9" format="1">
  <advance width="677"/>
  <unicode hex="02C9"/>
  <outline>
    <contour>
      <point x="40" y="1321" type="line"/>
      <point x="637" y="1321" type="line"/>
      <point x="637" y="1448" type="line"/>
      <point x="40" y="1448" type="line"/>
    </contour>
    <contour>
      <point x="339" y="1097" type="move" name="_top"/>
    </contour>
  </outline>
</glyph>
<glyph name="hungarumlaut" format="1">
  <advance width="1126"/>
  <unicode hex="02DD"/>
  <outline>
    <contour>
      <point x="548" y="1327" type="line" smooth="yes"/>
      <point x="549" y="1327"/>
      <point x="918" y="1465"/>
      <point x="943" y="1476" type="curve" smooth="yes"/>
      <point x="992" y="1497"/>
      <point x="1014" y="1541"/>
      <point x="1014" y="1580" type="curve" smooth="yes"/>
      <point x="1014" y="1631"/>
      <point x="977" y="1680"/>
      <point x="911" y="1680" type="curve" smooth="yes"/>
      <point x="879" y="1680"/>
      <point x="851" y="1664"/>
      <point x="827" y="1645" type="curve" smooth="yes"/>
      <point x="789" y="1613"/>
      <point x="531" y="1348"/>
      <point x="531" y="1348" type="curve"/>
      <point x="532" y="1331" type="line"/>
    </contour>
    <contour>
      <point x="108" y="1327" type="line" smooth="yes"/>
      <point x="109" y="1327"/>
      <point x="478" y="1465"/>
      <point x="503" y="1476" type="curve" smooth="yes"/>
      <point x="552" y="1497"/>
      <point x="574" y="1541"/>
      <point x="574" y="1580" type="curve" smooth="yes"/>
      <point x="574" y="1631"/>
      <point x="537" y="1680"/>
      <point x="471" y="1680" type="curve" smooth="yes"/>
      <point x="439" y="1680"/>
      <point x="411" y="1664"/>
      <point x="387" y="1645" type="curve" smooth="yes"/>
      <point x="349" y="1613"/>
      <point x="91" y="1348"/>
      <point x="91" y="1348" type="curve"/>
      <point x="92" y="1331" type="line"/>
    </contour>
    <contour>
      <point x="363" y="1097" type="move" name="_top"/>
    </contour>
  </outline>
</glyph>
<glyph name="breveinvertedcomb" format="1">
  <advance width="843"/>
  <unicode hex="0311"/>
  <outline>
    <contour>
      <point x="145" y="1278" type="curve"/>
      <point x="286" y="1278" type="line"/>
      <point x="286" y="1397"/>
      <point x="332" y="1452"/>
      <point x="431" y="1452" type="curve" smooth="yes"/>
      <point x="530" y="1452"/>
      <point x="576" y="1397"/>
      <point x="576" y="1278" type="curve"/>
      <point x="717" y="1278" type="line"/>
      <point x="717" y="1484"/>
      <point x="627" y="1578"/>
      <point x="431" y="1578" type="curve" smooth="yes"/>
      <point x="235" y="1578"/>
      <point x="145" y="1484"/>
    </contour>
    <contour>
      <point x="450" y="1097" type="move" name="_top"/>
    </contour>
  </outline>
</glyph>
<glyph name="Euro" format="1">
  <advance width="1357"/>
  <unicode hex="20AC"/>
  <outline>
    <contour>
      <point x="-27" y="547" type="line"/>
      <point x="887" y="547" type="line"/>
      <point x="907" y="648" type="line"/>
      <point x="-7" y="648" type="line"/>
    </contour>
    <contour>
      <point x="-27" y="827" type="line"/>
      <point x="887" y="827" type="line"/>
      <point x="907" y="928" type="line"/>
      <point x="-7" y="928" type="line"/>
    </contour>
    <component base="C"/>
  </outline>
</glyph>
<glyph name="trademark" format="1">
  <advance width="1244"/>
  <unicode hex="2122"/>
  <outline>
    <contour>
      <point x="593" y="869" type="line"/>
      <point x="702" y="869" type="line"/>
      <point x="702" y="1285" type="line"/>
      <point x="835" y="869" type="line"/>
      <point x="941" y="869" type="line"/>
      <point x="1076" y="1285" type="line"/>
      <point x="1076" y="869" type="line"/>
      <point x="1198" y="869" type="line"/>
      <point x="1198" y="1490" type="line"/>
      <point x="1047" y="1490" type="line"/>
      <point x="900" y="1035" type="line"/>
      <point x="743" y="1490" type="line"/>
      <point x="593" y="1490" type="line"/>
    </contour>
    <contour>
      <point x="201" y="869" type="line"/>
      <point x="330" y="869" type="line"/>
      <point x="330" y="1405" type="line"/>
      <point x="484" y="1405" type="line"/>
      <point x="484" y="1490" type="line"/>
      <point x="46" y="1490" type="line"/>
      <point x="46" y="1405" type="line"/>
      <point x="201" y="1405" type="line"/>
    </contour>
  </outline>
</glyph>
<glyph name="summation" format="1">
  <advance width="1303"/>
  <unicode hex="2211"/>
  <outline>
    <contour>
      <point x="160" y="-18" type="line"/>
      <point x="1141" y="-18" type="line"/>
      <point x="1141" y="155" type="line"/>
      <point x="380" y="155" type="line"/>
      <point x="910" y="679" type="line"/>
      <point x="910" y="788" type="line"/>
      <point x="383" y="1324" type="line"/>
      <point x="1141" y="1324" type="line"/>
      <point x="1141" y="1490" type="line"/>
      <point x="160" y="1490" type="line"/>
      <point x="160" y="1317" type="line"/>
      <point x="716" y="736" type="line"/>
      <point x="160" y="173" type="line"/>
    </contour>
  </outline>
</glyph>
<glyph name="uniFB02" format="1">
  <advance width="1247"/>
  <unicode hex="FB02"/>
  <outline>
    <contour>
      <point x="267" y="0" type="line"/>
      <point x="464" y="0" type="line"/>
      <point x="464" y="984" type="line"/>
      <point x="662" y="984" type="line"/>
      <point x="662" y="1097" type="line"/>
      <point x="464" y="1097" type="line"/>
      <point x="464" y="1155"/>
      <point x="463" y="1200"/>
      <point x="463" y="1235" type="curve" smooth="yes"/>
      <point x="463" y="1360"/>
      <point x="505" y="1394"/>
      <point x="577" y="1394" type="curve" smooth="yes"/>
      <point x="661" y="1394"/>
      <point x="825" y="1379"/>
      <point x="889" y="1372" type="curve"/>
      <point x="889" y="0" type="line"/>
      <point x="1086" y="0" type="line"/>
      <point x="1086" y="1482" type="line"/>
      <point x="883" y="1506"/>
      <point x="724" y="1522"/>
      <point x="568" y="1522" type="curve" smooth="yes"/>
      <point x="276" y="1522"/>
      <point x="267" y="1416"/>
      <point x="267" y="1097" type="curve"/>
      <point x="138" y="1097" type="line"/>
      <point x="138" y="984" type="line"/>
      <point x="267" y="984" type="line"/>
    </contour>
  </outline>
</glyph>
<glyph name="caron.alt" format="1">
  <advance width="600"/>
  <outline>
    <contour>
      <point x="266" y="1180" type="line"/>
      <point x="446" y="1180"/>
      <point x="549" y="1353"/>
      <point x="549" y="1525" type="curve" smooth="yes"/>
      <point x="549" y="1652"/>
      <point x="472" y="1706"/>
      <point x="396" y="1706" type="curve" smooth="yes"/>
      <point x="324" y="1706"/>
      <point x="252" y="1656"/>
      <point x="252" y="1575" type="curve" smooth="yes"/>
      <point x="252" y="1466"/>
      <point x="299" y="1410"/>
      <point x="394" y="1405" type="curve"/>
      <point x="394" y="1313"/>
      <point x="343" y="1243"/>
      <point x="266" y="1240" type="curve"/>
    </contour>
    <contour>
      <point x="55" y="1097" type="move" name="_caron.alt"/>
    </contour>
    <contour>
      <point x="300" y="1097" type="move" name="_top"/>
    </contour>
  </outline>
</glyph>
